<svg xmlns="http://www.w3.org/2000/svg" width="74666.661" height="74666.661" viewBox="0 0 69.999995 69.999995"><g fill="#62a53a"><path d="M18.25 34.52c2.112 0 3.174 1.097 3.174 1.097l-.97 1.512s-.842-.763-2.008-.763c-1.73 0-2.435 1.11-2.435 2.33 0 1.57 1.086 2.506 2.367 2.506.97 0 1.673-.6 1.673-.6v-.636h-1.166v-1.72h2.955v4.664h-1.686l.012-.576h-.023s-.796.715-2.17.715c-2.112 0-4.05-1.58-4.05-4.28 0-2.403 1.81-4.25 4.327-4.25M25.527 38.398c.646 0 1.05-.357 1.05-1.014 0-.624-.23-.992-1.246-.992h-.68v2.006h.877zM22.63 34.66h2.873c.843 0 1.246.058 1.605.196.935.357 1.523 1.2 1.523 2.4 0 .877-.415 1.835-1.234 2.25v.024s.115.15.312.496l1.604 2.885h-2.25l-1.466-2.78h-.946v2.78h-2.02v-8.25zM29.788 34.66h5.17v1.73h-3.15v1.5h2.515v1.732h-2.515v1.558h3.31v1.73h-5.33v-8.25zM35.868 34.66h5.145v1.722H37.88v1.494h2.503v1.72H37.88v1.553h3.295v1.72h-5.307v-8.21zM41.894 34.66h2.034l2.272 3.835c.323.54.69 1.4.69 1.4h.023s-.092-.883-.092-1.4V34.66h2.01v8.21h-2.02l-2.286-3.823c-.322-.54-.69-1.4-.69-1.4h-.023s.094.883.094 1.4v3.824h-2.01v-8.21zM50.552 40.31s.93.85 1.965.85c.413 0 .86-.16.86-.655 0-.976-3.698-.94-3.698-3.468 0-1.517 1.274-2.515 2.907-2.515 1.767 0 2.64.93 2.64.93l-.85 1.64s-.826-.722-1.814-.722c-.414 0-.874.184-.874.644 0 1.033 3.698.85 3.698 3.445 0 1.365-1.044 2.55-2.893 2.55-1.93 0-3-1.172-3-1.172l1.057-1.528zM15.27 30.702s.706.643 1.487.643c.314 0 .653-.12.653-.495 0-.74-2.8-.714-2.8-2.627 0-1.148.965-1.905 2.2-1.905 1.34 0 2 .705 2 .705l-.644 1.243s-.627-.547-1.374-.547c-.312 0-.66.137-.66.485 0 .784 2.8.644 2.8 2.61 0 1.035-.79 1.93-2.192 1.93-1.46 0-2.27-.886-2.27-.886l.8-1.158zM22.46 26.318c1.54 0 2.33.878 2.33.878l-.704 1.15s-.697-.636-1.557-.636c-1.193 0-1.758.878-1.758 1.775 0 .92.61 1.87 1.757 1.87.94 0 1.65-.766 1.65-.766l.784 1.112s-.878 1.044-2.504 1.044c-1.95 0-3.263-1.382-3.263-3.227 0-1.81 1.39-3.202 3.263-3.202"/><path d="M28.124 31.355c.93 0 1.68-.8 1.68-1.862 0-1.018-.75-1.784-1.68-1.784-.93 0-1.68.765-1.68 1.783 0 1.06.75 1.862 1.68 1.862m0-5.037c1.878 0 3.253 1.39 3.253 3.175 0 1.827-1.375 3.253-3.253 3.253-1.88 0-3.253-1.426-3.253-3.253 0-1.784 1.374-3.175 3.254-3.175M33.16 27.727h-1.888v-1.304h5.3v1.304h-1.89v4.915h-1.52v-4.915zM38.83 27.727h-1.886v-1.304h5.296v1.304h-1.887v4.915H38.83v-4.915zM42.647 26.423h1.522v6.22h-1.523v-6.22zM45.42 30.702s.703.643 1.486.643c.314 0 .65-.12.65-.495 0-.74-2.798-.714-2.798-2.627 0-1.148.965-1.905 2.2-1.905 1.34 0 2.002.705 2.002.705l-.645 1.243s-.626-.547-1.373-.547c-.313 0-.662.137-.662.485 0 .784 2.8.644 2.8 2.61 0 1.035-.79 1.93-2.19 1.93-1.462 0-2.272-.886-2.272-.886l.8-1.158zM49.54 26.423h1.52v2.487h2.264v-2.487h1.52v6.22h-1.52v-2.437H51.06v2.436h-1.52v-6.22z"/><path d="M35 59.455c-13.506 0-24.454-10.95-24.454-24.456 0-13.507 10.948-24.456 24.455-24.456 13.508 0 24.455 10.95 24.455 24.455 0 13.506-10.947 24.455-24.454 24.455M64.085 37.89C67.736 36.507 70 35 70 35s-2.23-1.482-5.83-2.86c3.265-2.05 5.164-3.937 5.164-3.937s-2.487-1.025-6.306-1.677c2.82-2.658 4.32-4.89 4.32-4.89s-2.626-.52-6.48-.417c2.235-3.143 3.27-5.61 3.27-5.61s-2.72 0-6.528.87c1.603-3.563 2.14-6.23 2.14-6.23s-2.625.53-6.146 2.103c.86-3.76.868-6.436.868-6.436S51.988 6.95 48.827 9.19c.113-3.873-.403-6.514-.403-6.514s-2.222 1.49-4.876 4.29c-.643-3.804-1.656-6.28-1.656-6.28s-1.922 1.923-4 5.23C36.507 2.265 35 0 35 0s-1.482 2.23-2.86 5.83C30.09 2.566 28.205.668 28.205.668s-1.026 2.487-1.678 6.305c-2.658-2.817-4.89-4.32-4.89-4.32s-.52 2.627-.416 6.482c-3.142-2.236-5.612-3.27-5.612-3.27s.002 2.718.872 6.526c-3.563-1.602-6.228-2.14-6.228-2.14s.528 2.625 2.1 6.146c-3.76-.86-6.435-.868-6.435-.868s1.033 2.485 3.273 5.645c-3.872-.113-6.513.403-6.513.403s1.49 2.224 4.29 4.878c-3.804.64-6.28 1.655-6.28 1.655s1.922 1.92 5.23 4C2.263 33.494 0 35 0 35s2.23 1.483 5.832 2.86C2.565 39.91.666 41.797.666 41.797s2.488 1.026 6.306 1.678c-2.818 2.658-4.32 4.89-4.32 4.89s2.626.518 6.48.415c-2.234 3.143-3.27 5.612-3.27 5.612s2.72 0 6.528-.87c-1.602 3.562-2.138 6.226-2.138 6.226s2.624-.528 6.145-2.1c-.86 3.76-.868 6.435-.868 6.435s2.483-1.032 5.644-3.272c-.114 3.873.402 6.513.402 6.513s2.224-1.49 4.878-4.288c.64 3.803 1.655 6.28 1.655 6.28s1.92-1.923 4-5.23C33.494 67.734 35 70 35 70s1.482-2.23 2.86-5.832c2.05 3.267 3.937 5.166 3.937 5.166s1.026-2.488 1.677-6.306c2.658 2.818 4.89 4.32 4.89 4.32s.52-2.626.418-6.48c3.14 2.235 5.61 3.27 5.61 3.27s0-2.718-.87-6.53c3.562 1.604 6.227 2.14 6.227 2.14s-.53-2.623-2.103-6.144c3.76.86 6.436.868 6.436.868s-1.033-2.484-3.273-5.645c3.873.113 6.513-.403 6.513-.403s-1.49-2.223-4.288-4.877c3.803-.64 6.28-1.656 6.28-1.656s-1.923-1.92-5.23-4"/></g></svg>