<svg xmlns="http://www.w3.org/2000/svg" width="74666.668" height="74666.668" viewBox="0 0 70.000002 70.000002"><path d="M60.838 53.747c-1.366 1.492-3.457 2.165-4.192 4.272-1.34 1.943-2.42 4.53-4.893 5.127-3.446.958-7.03.086-10.464-.51-1.816-.414-4.02-1.093-4.538-3.208-.7-2.218-.29-5.008 1.758-6.32 1.846-.928 3.734-1.81 5.33-3.19 2.51-1.868 5.775-1.294 8.658-1.844 5.402-.584 10.722 1.34 15.34 4.106.887.312 2.632 2.16 2.162.106-.013-15.82.027-31.642-.02-47.46C69.757 1.807 66.757-.44 63.906 0h-4.464c2.65 2.464 5.347 5.654 5.307 9.55-.277 2.45-2.583 3.945-4.692 4.583-1.31-1.56-.636-3.757.382-5.236-.444-1.65-3.28-1.718-2.783-3.975-.867-1.52-2.962-1.58-4.334-1.546C52.01 2.49 50.578 1.69 49.53.462c-.777-1.037-3.692-.6-2.073.996-.573 2.57-3.525.685-5.172 1.517-2.026.2-4.56-.016-5.875 1.94-1.176 1.71-.814 4.37-2.92 5.424-1.227 1.168-3.408.89-4.502 1.553-.078 2.015-.458 4.513.68 6.207 1.765 1.383 4.324-2.244 1.323-2.19-2.376-.454.028-2.37 1.133-2.81 1.397-.82 2.918-1.433 4.505-1.718.743 1.3 1.848 1.657 3.162 1.084.913.14 3.82.783 3.063-.78-1.78-1.517-4.96.466-6.056-1.792-.9-1.915.9-3.293 2.413-3.926 3.848-1.94 8.327-1.916 12.464-1.197 2.992.746 5.276 3.805 5.23 6.96-.34 2.317-2.915 2.668-4.073 4.458-1.595.637-2.376 3.213-4.188 2.75-1.136-1.68-1.595-3.867-3.014-5.4-1.834-1.275-.862 2.693-2.652 2.748-1.818 1.097-3.76-.517-5.477-1.082-.592-1.066-2.974-1.307-2.187.4 1.375 1.358 3.572 1.397 4.72 3.11 1.818.797 3.312-1.258 5.15-1.232 2.328-.586 2.46 2.432 1.34 3.775-1.495 2.535-4.545 3.18-7.212 3.245-1.438.038-2.89-.148-4.255-.632 1.032 1.503 3.13 3.018 4.95 2.482 2.065-.633 4.344-.867 6.07-2.307 1.577-1.174 3.215-2.367 4.435-3.936.345-1.172 1.262-2.336 2.42-1.468 1.118-.234.954-3.517 1.99-2.484.44 2.996.31 6.316-1.244 8.956-1.573 1.456-3.87 1.436-5.756 2.24-1.86.85-3.7-1.813-5.234-.616-.478 2.188 2.315 2.83 3.856 3.226 2.7.436 5.713-.226 7.784-2.11 1.068-1.484.353-3.67 1.486-5.085 1.43-.588 2.804-.87 3.974-2.08.938-1.068-.313-3.577 2.07-3.386 2.216.012 3.398 2.424 3.867 4.358.652 3.086.574 6.42-.478 9.402-1.478 3.282-4.24 5.77-7.115 7.744-4.477 2.945-9.734 4.48-14.99 4.98-2.91.295-5.55-1.17-8.025-2.543-1.86-.9-3.87-1.925-4.75-3.91-.47-.407-2.36-2.18-.606-1.59 3.958.903 7.986 1.53 12.02 1.893 1.657-.227 4.123.667 5.273-.25-1.067-1.364-3.223-.87-4.762-1.123-1.993-.154-2.97-2.153-3.952-3.672-1.02-2.03-3.61-2.29-4.792-4.142-.11-.95-.225-2.42-1.512-1.475-1.6 1.38-3.024-.09-4-1.387-1.166-1.947-1.558 1.257.046 1.446 2.06 1.808 4.284 3.42 6.254 5.337.212 2.27-2.684 2.91-4.282 2.056-2.942-.566-6.072-1.28-8.262-3.55-1.903-1.47-3.305-3.545-3.9-5.922-.705-2.112-1.053-4.456-.348-6.615.058-1.104-1.286-4.314.732-3.653 1.657 1.915 2.746 4.343 4.81 5.885.91 1.15 4.707 2.404 3.887-.232-.934-1.392-1.452-3.026-2.513-4.33-1.13-1.38-2.434-3.173-1.717-5.078.718-2.314 2.36-4.29 2.507-6.795.02-1.497.973-3.102 1.49-4.134-7.434.03-14.883-.076-22.318.053C1.56.428-.424 3.516 0 6.386v18.128c2.45.906 5.2 1.548 6.934 3.728 3.434 3.514 5.492 8.515 5.244 13.53.385 2.013 2.958 2.924 2.818 5.12-.99-.507-2.024-3.414-3.33-1.9-.776 2.223-3.18 1.63-4.924 1.327-2.61-.482-4.913-2.12-6.417-4.353-.823-.358-.068 2.07-.322 2.704.022 6.923-.067 13.85.05 20.77.362 2.95 3.354 4.997 6.137 4.56h3.183c1.846-3.867 2.98-8.118 5.425-11.664.84-2.296-.45-4.784.386-7.12.21-1.81 1.156-3.595.595-5.41-.25-2.266.642-4.714 2.424-6.088 1.647-1.087 3.522 1.635 2.894 2.895-1.542-.29.86 1.24-.112 2.224-.474 1.622-2.66 2.87-2.108 4.666 1.13-.095 2.108-2.815 2.79-2.135-.2 2.007-2.647 3.07-2.285 4.993.013 1.005-2.52 2.84-1.202 3.12 1.153-.902 2.313-1.763 3.708-2.23 2.088-.887 4.952-1.05 6.427 1.056 1.16 1.796 3.685 1.992 4.06 4.387.872 1.03-.64 2.85.238 3.38 1.456-.193 2.888-.02 4.31.334 3.794.935 7.16 3.698 8.73 7.406 1.587.438 3.415.054 5.097.183 4.943-.015 9.89.063 14.83-.052 2.86-.373 4.843-3.46 4.42-6.33V54.24c-2.572-1.217-5.565-1.814-8.35-1.13-.322.123-.623.333-.812.635zM18.986 31.273c-1.51.07-1.89 2.93-3.705 1.274-2.192-.993-3.795-2.986-5.167-4.938-1.792-3.24-2.568-7.06-2.452-10.767.49-4.078 2.35-8.078 5.342-10.82 2.037-1.684 4.604-2.715 7.222-2.76 1.606.8.828 3.24.772 4.71-.763 2.64-2.954 4.41-4.85 6.19-1.52 2.38-.553 5.34-.134 7.92.457 2.86 1.308 5.716 3.014 8.047.225.34.382.89-.04 1.143zm7.608 16.587c-2.638-2.243-3.2-5.925-4.38-9.045-.208-1.705-1.63-3.522-1.432-5.017 1.872-.37 3.758 1.014 5.475 1.708 1.94 1.124 3.875 2.63 4.526 4.936.772 2.216 3.198 2.91 5.075 3.803 3.18 1.102 6.462 1.96 9.81 2.288-.288 1.468-2.798.906-3.974 1.28-2.815.164-5.663.333-8.35 1.29-2.286.528-4.83.21-6.75-1.243z" fill="#c41230"/></svg>