<?xml version="1.0" encoding="UTF-8" standalone="no"?>
<!-- Created with Inkscape (http://www.inkscape.org/) -->

<svg
   xmlns:dc="http://purl.org/dc/elements/1.1/"
   xmlns:cc="http://creativecommons.org/ns#"
   xmlns:rdf="http://www.w3.org/1999/02/22-rdf-syntax-ns#"
   xmlns:svg="http://www.w3.org/2000/svg"
   xmlns="http://www.w3.org/2000/svg"
   xmlns:sodipodi="http://sodipodi.sourceforge.net/DTD/sodipodi-0.dtd"
   xmlns:inkscape="http://www.inkscape.org/namespaces/inkscape"
   width="19.755556mm"
   height="19.145933mm"
   viewBox="0 0 70.000002 67.839921"
   id="svg11825"
   version="1.1"
   inkscape:version="0.91 r13725"
   sodipodi:docname="labour.svg">
  <defs
     id="defs11827">
    <linearGradient
       x1="0"
       y1="0"
       x2="1"
       y2="0"
       gradientUnits="userSpaceOnUse"
       gradientTransform="matrix(43.699188,36.667908,-36.667908,43.699188,344.83293,531.46098)"
       spreadMethod="pad"
       id="linearGradient3197">
      <stop
         style="stop-opacity:1;stop-color:#fcc215"
         offset="0"
         id="stop3199" />
      <stop
         style="stop-opacity:1;stop-color:#fab41a"
         offset="0.32753"
         id="stop3201" />
      <stop
         style="stop-opacity:1;stop-color:#fab41a"
         offset="0.32753"
         id="stop3203" />
      <stop
         style="stop-opacity:1;stop-color:#fecb0f"
         offset="0.521606"
         id="stop3205" />
      <stop
         style="stop-opacity:1;stop-color:#ffffff"
         offset="1"
         id="stop3207" />
    </linearGradient>
    <linearGradient
       x1="0"
       y1="0"
       x2="1"
       y2="0"
       gradientUnits="userSpaceOnUse"
       gradientTransform="matrix(-63.695709,36.774719,-36.774719,-63.695709,387.44923,539.28073)"
       spreadMethod="pad"
       id="linearGradient3223">
      <stop
         style="stop-opacity:1;stop-color:#f69c20"
         offset="0"
         id="stop3225" />
      <stop
         style="stop-opacity:1;stop-color:#fecb0f"
         offset="0.388733"
         id="stop3227" />
      <stop
         style="stop-opacity:1;stop-color:#ffffff"
         offset="1"
         id="stop3229" />
    </linearGradient>
    <linearGradient
       x1="0"
       y1="0"
       x2="1"
       y2="0"
       gradientUnits="userSpaceOnUse"
       gradientTransform="matrix(-76.497406,-13.488541,13.488541,-76.497406,385.22432,556.31181)"
       spreadMethod="pad"
       id="linearGradient3245">
      <stop
         style="stop-opacity:1;stop-color:#f69c20"
         offset="0"
         id="stop3247" />
      <stop
         style="stop-opacity:1;stop-color:#fecb0f"
         offset="0.401215"
         id="stop3249" />
      <stop
         style="stop-opacity:1;stop-color:#ffffff"
         offset="0.864288"
         id="stop3251" />
      <stop
         style="stop-opacity:1;stop-color:#ffffff"
         offset="1"
         id="stop3253" />
    </linearGradient>
    <linearGradient
       x1="0"
       y1="0"
       x2="1"
       y2="0"
       gradientUnits="userSpaceOnUse"
       gradientTransform="matrix(10.9086,0,0,-10.9086,351.52345,545.87473)"
       spreadMethod="pad"
       id="linearGradient3269">
      <stop
         style="stop-opacity:1;stop-color:#f69c20"
         offset="0"
         id="stop3271" />
      <stop
         style="stop-opacity:1;stop-color:#fecb0f"
         offset="0.5"
         id="stop3273" />
      <stop
         style="stop-opacity:1;stop-color:#ffffff"
         offset="1"
         id="stop3275" />
    </linearGradient>
    <linearGradient
       x1="0"
       y1="0"
       x2="1"
       y2="0"
       gradientUnits="userSpaceOnUse"
       gradientTransform="matrix(-78.324554,1.53e-5,-1.53e-5,-78.324554,382.76971,545.9041)"
       spreadMethod="pad"
       id="linearGradient3291">
      <stop
         style="stop-opacity:1;stop-color:#f7941d"
         offset="0"
         id="stop3293" />
      <stop
         style="stop-opacity:1;stop-color:#f7c628"
         offset="1"
         id="stop3295" />
    </linearGradient>
    <linearGradient
       x1="0"
       y1="0"
       x2="1"
       y2="0"
       gradientUnits="userSpaceOnUse"
       gradientTransform="matrix(43.743378,36.705017,-36.705017,43.743378,345.93065,530.16566)"
       spreadMethod="pad"
       id="linearGradient3311">
      <stop
         style="stop-opacity:1;stop-color:#f69c20"
         offset="0"
         id="stop3313" />
      <stop
         style="stop-opacity:1;stop-color:#fecb0f"
         offset="0.134598"
         id="stop3315" />
      <stop
         style="stop-opacity:1;stop-color:#fecb0f"
         offset="1"
         id="stop3317" />
    </linearGradient>
    <linearGradient
       x1="0"
       y1="0"
       x2="1"
       y2="0"
       gradientUnits="userSpaceOnUse"
       gradientTransform="matrix(3.1322632,8.6058502,8.6058502,-3.1322632,355.0397,530.47197)"
       spreadMethod="pad"
       id="linearGradient3333">
      <stop
         style="stop-opacity:1;stop-color:#f69c20"
         offset="0"
         id="stop3335" />
      <stop
         style="stop-opacity:1;stop-color:#fecb0f"
         offset="0.667084"
         id="stop3337" />
      <stop
         style="stop-opacity:1;stop-color:#fecb0f"
         offset="1"
         id="stop3339" />
    </linearGradient>
    <linearGradient
       x1="0"
       y1="0"
       x2="1"
       y2="0"
       gradientUnits="userSpaceOnUse"
       gradientTransform="matrix(43.737228,36.699951,-36.699951,43.737228,351.29019,523.78398)"
       spreadMethod="pad"
       id="linearGradient3355">
      <stop
         style="stop-opacity:1;stop-color:#f69c20"
         offset="0"
         id="stop3357" />
      <stop
         style="stop-opacity:1;stop-color:#fecb0f"
         offset="0.628372"
         id="stop3359" />
      <stop
         style="stop-opacity:1;stop-color:#ffffff"
         offset="1"
         id="stop3361" />
    </linearGradient>
    <linearGradient
       x1="0"
       y1="0"
       x2="1"
       y2="0"
       gradientUnits="userSpaceOnUse"
       gradientTransform="matrix(43.681824,36.653351,-36.653351,43.681824,352.95485,521.79739)"
       spreadMethod="pad"
       id="linearGradient3377">
      <stop
         style="stop-opacity:1;stop-color:#f69c20"
         offset="0"
         id="stop3379" />
      <stop
         style="stop-opacity:1;stop-color:#fecb0f"
         offset="0.583206"
         id="stop3381" />
      <stop
         style="stop-opacity:1;stop-color:#ffffff"
         offset="1"
         id="stop3383" />
    </linearGradient>
    <linearGradient
       x1="0"
       y1="0"
       x2="1"
       y2="0"
       gradientUnits="userSpaceOnUse"
       gradientTransform="matrix(32.971008,0,0,-32.971008,345.39307,545.00174)"
       spreadMethod="pad"
       id="linearGradient3399">
      <stop
         style="stop-opacity:1;stop-color:#de831d"
         offset="0"
         id="stop3401" />
      <stop
         style="stop-opacity:1;stop-color:#eda919"
         offset="0.272644"
         id="stop3403" />
      <stop
         style="stop-opacity:1;stop-color:#de891d"
         offset="0.518738"
         id="stop3405" />
      <stop
         style="stop-opacity:1;stop-color:#fecb0e"
         offset="1"
         id="stop3407" />
    </linearGradient>
    <linearGradient
       x1="0"
       y1="0"
       x2="1"
       y2="0"
       gradientUnits="userSpaceOnUse"
       gradientTransform="matrix(-8.1751404,22.460998,22.460998,8.1751404,361.83891,544.867)"
       spreadMethod="pad"
       id="linearGradient3423">
      <stop
         style="stop-opacity:1;stop-color:#ce8019"
         offset="0"
         id="stop3425" />
      <stop
         style="stop-opacity:1;stop-color:#fecb0e"
         offset="0.86116"
         id="stop3427" />
      <stop
         style="stop-opacity:1;stop-color:#fecb0e"
         offset="1"
         id="stop3429" />
    </linearGradient>
    <linearGradient
       x1="0"
       y1="0"
       x2="1"
       y2="0"
       gradientUnits="userSpaceOnUse"
       gradientTransform="matrix(-5.8923187,16.189072,16.189072,5.8923187,359.02728,542.60149)"
       spreadMethod="pad"
       id="linearGradient3445">
      <stop
         style="stop-opacity:1;stop-color:#d4831b"
         offset="0"
         id="stop3447" />
      <stop
         style="stop-opacity:1;stop-color:#fecb0e"
         offset="1"
         id="stop3449" />
    </linearGradient>
    <linearGradient
       x1="0"
       y1="0"
       x2="1"
       y2="0"
       gradientUnits="userSpaceOnUse"
       gradientTransform="matrix(-2.9954071,8.2298431,8.2298431,2.9954071,358.48744,541.69994)"
       spreadMethod="pad"
       id="linearGradient3465">
      <stop
         style="stop-opacity:1;stop-color:#de831d"
         offset="0"
         id="stop3467" />
      <stop
         style="stop-opacity:1;stop-color:#fecb0e"
         offset="0.834259"
         id="stop3469" />
      <stop
         style="stop-opacity:1;stop-color:#fecb0e"
         offset="0.834259"
         id="stop3471" />
      <stop
         style="stop-opacity:1;stop-color:#fecb0e"
         offset="1"
         id="stop3473" />
    </linearGradient>
    <linearGradient
       x1="0"
       y1="0"
       x2="1"
       y2="0"
       gradientUnits="userSpaceOnUse"
       gradientTransform="matrix(10.972122,0,0,-10.972122,347.16121,535.48569)"
       spreadMethod="pad"
       id="linearGradient3489">
      <stop
         style="stop-opacity:1;stop-color:#de831d"
         offset="0"
         id="stop3491" />
      <stop
         style="stop-opacity:1;stop-color:#fecb0e"
         offset="1"
         id="stop3493" />
    </linearGradient>
    <linearGradient
       x1="0"
       y1="0"
       x2="1"
       y2="0"
       gradientUnits="userSpaceOnUse"
       gradientTransform="matrix(8.2905426,0,0,-8.2905426,352.56509,534.4637)"
       spreadMethod="pad"
       id="linearGradient3509">
      <stop
         style="stop-opacity:1;stop-color:#d4831b"
         offset="0"
         id="stop3511" />
      <stop
         style="stop-opacity:1;stop-color:#fecb0e"
         offset="0.908035"
         id="stop3513" />
      <stop
         style="stop-opacity:1;stop-color:#fecb0e"
         offset="0.908035"
         id="stop3515" />
      <stop
         style="stop-opacity:1;stop-color:#fecb0e"
         offset="1"
         id="stop3517" />
    </linearGradient>
    <linearGradient
       x1="0"
       y1="0"
       x2="1"
       y2="0"
       gradientUnits="userSpaceOnUse"
       gradientTransform="matrix(18.749542,0,0,-18.749542,371.68384,548.81573)"
       spreadMethod="pad"
       id="linearGradient3533">
      <stop
         style="stop-opacity:1;stop-color:#de891d"
         offset="0"
         id="stop3535" />
      <stop
         style="stop-opacity:1;stop-color:#fecb0e"
         offset="1"
         id="stop3537" />
    </linearGradient>
    <linearGradient
       x1="0"
       y1="0"
       x2="1"
       y2="0"
       gradientUnits="userSpaceOnUse"
       gradientTransform="matrix(18.058029,0,0,-18.058029,369.71021,543.01221)"
       spreadMethod="pad"
       id="linearGradient3553">
      <stop
         style="stop-opacity:1;stop-color:#de891d"
         offset="0"
         id="stop3555" />
      <stop
         style="stop-opacity:1;stop-color:#fecb0e"
         offset="1"
         id="stop3557" />
    </linearGradient>
  </defs>
  <sodipodi:namedview
     id="base"
     pagecolor="#ffffff"
     bordercolor="#666666"
     borderopacity="1.0"
     inkscape:pageopacity="0.0"
     inkscape:pageshadow="2"
     inkscape:zoom="3.959798"
     inkscape:cx="43.375793"
     inkscape:cy="60.937694"
     inkscape:document-units="px"
     inkscape:current-layer="layer1"
     showgrid="false"
     fit-margin-top="0"
     fit-margin-left="0"
     fit-margin-right="0"
     fit-margin-bottom="0"
     inkscape:window-width="844"
     inkscape:window-height="389"
     inkscape:window-x="1717"
     inkscape:window-y="319"
     inkscape:window-maximized="0" />
  <metadata
     id="metadata11830">
    <rdf:RDF>
      <cc:Work
         rdf:about="">
        <dc:format>image/svg+xml</dc:format>
        <dc:type
           rdf:resource="http://purl.org/dc/dcmitype/StillImage" />
        <dc:title></dc:title>
      </cc:Work>
    </rdf:RDF>
  </metadata>
  <g
     inkscape:label="Layer 1"
     inkscape:groupmode="layer"
     id="layer1"
     transform="translate(103.33482,-447.15191)">
    <g
       id="g2592"
       transform="matrix(3.5237856,0,0,-3.5237856,-42.496661,499.24051)"
       style="fill:#c41230;fill-opacity:1">
      <path
         d="m 0,0 c -0.131,-0.272 -0.337,-0.326 -0.468,-0.348 -0.13,-0.022 -0.174,-0.098 -0.326,-0.283 -0.152,-0.185 -0.337,-0.467 -1.001,-1.436 -0.663,-0.968 -2.654,-0.598 -3.763,-0.37 -1.109,0.229 -1.273,0.577 -1.36,1.349 -0.087,0.773 0.479,1.23 0.642,1.306 0.163,0.076 0.881,0.359 1.327,0.75 0.446,0.391 1.164,0.468 1.273,0.468 0.108,0 0.402,0.022 1.381,0.131 0.979,0.108 1.969,-0.153 2.643,-0.36 C 0.916,1.033 2.054,0.397 2.6,0.09 l 0,13.212 c 0,0.817 -0.662,1.48 -1.48,1.48 l -1.516,0 c 0.542,-0.458 1.359,-1.371 1.496,-2.285 0.172,-1.141 -1.103,-1.521 -1.208,-1.558 -0.104,-0.037 -0.149,-0.06 -0.149,-0.06 -0.38,0.79 -0.037,1.133 0.12,1.364 0.156,0.231 -0.075,0.343 -0.314,0.448 -0.238,0.104 -0.32,0.208 -0.357,0.335 -0.038,0.127 -0.06,0.306 -0.149,0.492 -0.09,0.187 -0.261,0.216 -0.418,0.231 -0.156,0.015 -0.283,0.105 -0.373,0.127 -0.089,0.022 -0.223,0.022 -0.223,0.022 l 0.007,-0.127 c 0,0 -0.432,0.224 -0.85,0.53 -0.297,0.218 -0.375,0.289 -0.493,0.481 l -0.658,0 c 0.036,-0.175 0.096,-0.276 0.152,-0.354 0.075,-0.105 -0.127,-0.388 -0.32,-0.447 -0.194,-0.06 -0.642,0.081 -0.642,0.081 -0.633,-0.171 -0.611,-0.067 -1.364,-0.178 -0.753,-0.112 -0.887,-0.612 -1.021,-0.917 -0.135,-0.306 0.104,-0.194 -0.254,-0.701 -0.358,-0.507 -1.126,-0.672 -1.439,-0.664 -0.313,0.007 -0.216,0.045 -0.201,-0.939 0.015,-0.984 0.156,-0.85 0.485,-0.932 0.328,-0.082 0.454,0.358 0.507,0.425 0.052,0.067 0.059,0.157 -0.015,0.164 -0.364,0.036 -0.582,0.112 -0.686,0.209 -0.104,0.097 0.045,0.29 0.216,0.41 0.171,0.119 0.686,0.395 0.835,0.462 0.149,0.067 0.582,0.208 0.776,0.246 0.194,0.037 0.223,-0.134 0.268,-0.224 0.039,-0.078 0.015,-0.164 0.186,-0.142 1.016,0.133 1.238,-0.029 1.305,-0.022 0.067,0.008 0.157,0.082 0.172,0.209 0.014,0.126 -0.343,0.201 -0.507,0.246 -0.164,0.045 -1.104,0.06 -1.104,0.06 0,0 -0.238,0.186 -0.283,0.633 -0.045,0.447 1.081,0.902 1.483,1.014 0.403,0.112 1.38,0.254 2.49,0.105 1.112,-0.149 1.581,-0.843 1.775,-1.604 0.194,-0.76 -0.395,-0.998 -0.485,-1.006 C -1.725,10.909 -1.919,10.722 -2.001,10.581 -2.083,10.439 -2.344,10.245 -2.53,10.133 -2.717,10.022 -3,9.775 -3,9.775 c 0,0 -0.007,-0.186 -0.239,-0.276 -0.231,-0.089 -0.402,0.381 -0.544,0.694 -0.141,0.313 -0.268,0.448 -0.388,0.693 -0.119,0.246 -0.313,0.299 -0.387,0.299 -0.075,0 -0.097,-0.127 -0.097,-0.328 0,-0.202 -0.186,-0.403 -0.5,-0.604 -0.313,-0.202 -0.947,0.141 -1.021,0.171 -0.075,0.03 -0.432,0.172 -0.537,0.217 -0.104,0.044 -0.142,0.111 -0.231,0.216 -0.09,0.104 -0.253,-0.075 -0.306,-0.112 -0.052,-0.038 -0.126,-0.104 0.008,-0.276 0.134,-0.171 0.559,-0.313 0.76,-0.373 0.202,-0.059 0.425,-0.328 0.545,-0.425 0.119,-0.097 0.246,-0.187 0.328,-0.134 0.554,0.353 1.23,0.448 1.341,0.448 0.112,0 0.582,-0.008 0.351,-0.724 -0.317,-0.983 -1.35,-1.185 -2.147,-1.215 -0.798,-0.03 -1.208,0.171 -1.253,0.171 -0.044,0 -0.052,-0.089 -0.03,-0.089 0.023,0 0.284,-0.187 0.478,-0.321 0.193,-0.134 0.521,-0.343 0.656,-0.343 0.134,0 0.574,0.149 0.723,0.187 0.149,0.037 0.514,0.126 0.805,0.216 0.291,0.089 1.409,0.991 1.61,1.193 0.202,0.201 0.358,0.671 0.433,0.693 0.074,0.022 0.216,-0.097 0.328,-0.112 0.112,-0.014 0.35,0.321 0.41,0.56 0.06,0.238 0.075,0.268 0.142,0.283 0.067,0.015 0.089,-0.149 0.089,-0.149 0,0 0.082,-0.418 0.045,-0.999 C -1.665,8.754 -1.718,8.605 -1.889,8.113 -2.061,7.621 -2.649,7.569 -2.843,7.509 -3.037,7.449 -3.522,7.293 -3.865,7.233 -4.208,7.174 -4.387,7.36 -4.618,7.464 -4.7,7.501 -5.147,7.576 -5.184,7.449 -5.345,6.904 -4.379,6.607 -4.223,6.57 c 1.023,-0.244 2.446,0.246 2.52,0.857 0.113,0.921 0.216,1.029 0.336,1.163 0.119,0.134 0.44,0.022 0.44,0.022 0.119,0.12 0.678,0.53 0.678,0.53 0,0 0.179,0.089 0.089,0.231 -0.089,0.141 -0.149,0.715 0.56,0.641 0.708,-0.075 0.946,-1.073 0.946,-1.073 0,0 0.284,-0.59 0.082,-2.088 C 1.227,5.355 -0.771,3.818 -2.59,3.245 -4.409,2.671 -5.274,2.737 -5.498,2.737 c -0.223,0 -0.671,0.179 -0.82,0.209 -0.149,0.03 -0.529,0.284 -0.656,0.336 -0.127,0.052 -0.566,0.276 -0.663,0.32 -0.097,0.045 -0.44,0.261 -0.641,0.403 -0.202,0.141 -0.254,0.291 -0.321,0.44 -0.067,0.149 -0.432,0.439 -0.477,0.477 -0.045,0.037 0,0.097 0,0.097 C -8.659,4.84 -5.841,4.445 -5.617,4.437 -5.393,4.43 -4.372,4.4 -4.238,4.4 c 0.134,0 0.373,-0.082 0.38,0.09 C -3.85,4.661 -4.64,4.78 -4.73,4.788 -4.819,4.795 -5.214,4.803 -5.505,4.84 -5.796,4.877 -6.497,5.966 -6.594,6.107 -6.69,6.249 -6.728,6.212 -6.907,6.301 -7.086,6.391 -7.712,6.875 -7.787,6.958 -7.861,7.039 -7.727,7.352 -7.801,7.434 -7.876,7.517 -8.115,7.383 -8.303,7.298 -8.748,7.097 -8.912,7.327 -8.912,7.327 L -9.521,7.966 -9.666,7.647 c 0,0 1.537,-1.248 1.972,-1.596 0.436,-0.348 0.116,-0.464 0.116,-0.464 0,0 -0.319,-0.348 -0.435,-0.377 -0.116,-0.029 -1.044,0.145 -1.769,0.348 -0.725,0.203 -0.957,0.435 -1.682,1.073 -0.725,0.638 -1.015,2.291 -0.928,2.611 0.087,0.319 0.116,0.812 0.058,0.957 -0.058,0.145 -0.174,0.638 0.087,0.638 0.261,0 0.464,-0.58 1.073,-1.276 0.609,-0.696 1.276,-0.928 1.537,-0.783 0.261,0.145 -0.087,0.58 -0.232,0.841 -0.145,0.261 -0.116,0.348 -0.696,1.073 -0.58,0.725 -0.174,1.276 -0.058,1.537 0.116,0.261 0.464,0.754 0.551,1.567 0.047,0.434 0.218,0.727 0.47,0.986 l -6.183,0 c -0.818,0 -1.48,-0.663 -1.48,-1.48 l 0,-5.262 c 0.404,-0.135 1.302,-0.444 1.463,-0.576 0.209,-0.171 2.061,-1.57 1.991,-4.078 -0.007,-0.268 0.084,-0.355 0.201,-0.485 0.067,-0.074 0.716,-0.701 0.604,-1.088 -0.298,0.44 -0.596,0.671 -0.686,0.716 -0.089,0.045 -0.186,0.097 -0.253,-0.068 -0.067,-0.163 -0.127,-0.604 -1.014,-0.477 -0.813,0.117 -1.483,0.255 -2.306,1.372 l 0,-6.346 c 0,-0.817 0.662,-1.48 1.48,-1.48 l 1.18,0 c 0.13,0.265 0.204,0.436 0.302,0.663 0.141,0.326 0.598,1.49 0.816,1.86 0.217,0.37 0.533,0.859 0.533,0.859 0,0 -0.098,0.773 -0.076,1.219 0.021,0.446 0.261,1.436 0.261,1.436 0,0 0.087,0.162 0.043,0.337 -0.043,0.174 -0.109,0.358 -0.065,0.674 0.043,0.315 0.185,0.805 0.435,1.033 0.25,0.228 0.424,0.359 0.565,0.348 0.142,-0.011 0.359,-0.217 0.642,-0.881 0,0 -0.152,-0.021 -0.272,0.011 -0.119,0.033 -0.043,-0.065 -0.021,-0.098 0.021,-0.032 0.304,-0.25 0.163,-0.522 -0.142,-0.272 -0.82,-1.09 -0.675,-1.283 0.098,-0.131 0.153,-0.011 0.305,0.152 0.152,0.163 0.489,0.555 0.544,0.533 0.054,-0.022 -0.109,-0.588 -0.696,-1.197 0,0 0.163,-0.076 0,-0.38 -0.163,-0.305 -0.403,-0.62 -0.435,-0.685 -0.033,-0.066 -0.033,-0.218 0.065,-0.131 0.098,0.087 1.022,0.826 1.925,0.826 0.653,0 0.708,-0.201 0.827,-0.261 0.108,-0.054 0.272,-0.239 0.304,-0.337 0.033,-0.097 0.076,-0.173 0.239,-0.228 0.164,-0.054 0.697,-0.185 0.773,-0.881 0,0 0.283,-0.348 -0.066,-0.881 0,0 2.726,0.367 3.882,-2.186 l 5.407,0 c 0.818,0 1.48,0.663 1.48,1.48 l 0,2.854 C 2.138,0.137 1.138,0.261 1.001,0.261 0.837,0.261 0.131,0.272 0,0 m -11.877,6.181 c -0.087,-0.022 -0.187,0.02 -0.324,-0.117 -0.044,-0.043 -0.098,-0.139 -0.101,-0.234 -0.008,-0.283 -0.62,0.011 -0.696,0.035 -0.195,0.061 -0.5,0.248 -1.174,1.009 -0.675,0.762 -0.914,2.328 -0.936,2.948 -0.022,0.62 0.25,1.751 1.055,2.817 0.805,1.066 2.208,1.251 2.393,1.251 0.185,0 0.359,-0.022 0.37,-0.131 0.011,-0.109 -0.022,-0.109 -0.022,-0.239 0,0 0.098,-0.239 0.065,-0.62 -0.074,-0.869 -0.902,-1.545 -1.305,-1.882 -0.402,-0.337 -0.359,-0.783 -0.348,-1.229 0.011,-0.445 0.359,-1.925 0.435,-2.175 0.076,-0.25 0.568,-1.112 0.645,-1.221 0.076,-0.109 0.029,-0.19 -0.057,-0.212 m 2.159,-4.562 c -0.44,0.313 -0.693,0.902 -0.961,1.663 -0.269,0.76 -0.425,1.29 -0.545,1.632 -0.119,0.343 -0.201,0.373 -0.216,0.463 -0.015,0.089 0.015,0.141 0.052,0.178 0,0 0.656,-0.104 1.201,-0.35 0.544,-0.246 0.529,-0.291 0.998,-0.604 0.47,-0.313 0.657,-0.961 0.783,-1.2 C -8.279,3.162 -7.845,2.98 -7.785,2.95 -7.725,2.921 -7.53,2.779 -7.53,2.779 -5.636,2.056 -4.365,1.999 -4.305,1.984 -4.245,1.97 -4.216,1.917 -4.216,1.917 -4.395,1.642 -6.08,1.589 -6.08,1.589 c 0,0 -0.581,0.015 -1.535,-0.261 C -8.57,1.053 -9.278,1.306 -9.718,1.619"
         style="fill:#c41230;fill-opacity:1;fill-rule:nonzero;stroke:none"
         id="path2594"
         inkscape:connector-curvature="0" />
    </g>
  </g>
</svg>
