<svg xmlns="http://www.w3.org/2000/svg" width="74666.661" height="58352.803" viewBox="0 0 69.999995 54.705754"><defs><linearGradient x2="1" gradientUnits="userSpaceOnUse" gradientTransform="matrix(16.81978 0 0 16.81978 -170.71 450.68)" id="a"><stop offset="0" stop-color="#f69c20"/><stop offset=".5" stop-color="#fecb0f"/><stop offset="1" stop-color="#fff"/></linearGradient></defs><path d="M37.627 22.05c-1.572 2.072-2.71 4.427-3.76 6.794-1.624 3.016-3.56 5.994-6.318 8.095-3.95 2.933-8.782 4.706-13.716 4.793-2.164.075-4.334-.225-6.39-.907-2.6-.767-5.233-1.75-7.314-3.54-.338 1.93-.05 4.067 1.14 5.65 1.854 1.61 4.5 1.686 6.793 1.22 3.35-.595 6.518-2.11 9.945-2.268 4.605-.04 9.388-.394 13.57-2.49 3.455-1.696 5.768-4.98 7.44-8.34 1.103-2.102 1.753-4.486 3.433-6.24 2.237-2.513 5.394-4.04 8.646-4.744-1.017-.36-2.087.138-3.132-.044-1.51-.117-2.965-.67-4.498-.564-2.18.014-4.53.73-5.84 2.585z" fill="#fed230"/><path d="M8.636.006C6.12 11.64 20.148 14.668 27.846 20.02c3.846 2.562 4.028 6.954 2.878 11.143.32-.435 3.987-5.546 2.056-10.126 0 0-1.49-3.302-7.832-6.167 0 0-7.03-3.016-10.36-5.793 0 0-5.545-4.854-5.952-9.077v.006z" fill="#fed230"/><path d="M5.475 14.022c.366 2.165 1.315 4.04 2.86 5.327 4.71 4.375 11.438 5.382 17.493 8.407 2.18.937 2.632 3.6 2.42 6.126.275-.632 1.276-3.206.345-5.87 0 0-.472-2.203-5.97-4.294 0 0-7.687-2.662-10.22-4.32 0 0-5.256-2.717-6.91-7.006 0 0-.063.65-.018 1.628" fill="#fed230"/><path d="M-170.71 446.498s.027.048.08.128c1.577 1.447 3.248 3.573 5.318 4.35 1.393.888 3.315 1.58 5.185 1.672.466.023.928.018 1.38.012 1.29-.014 2.48-.03 3.36.606.66.475 1.148.533 1.377 1.596.172-.67.516-2.956-1.99-3.97 0 0-.752-.332-2.84-.602 0 0-4.194-.325-6.432-1.27 0 0-4.385-1.697-5.437-2.522z" fill="url(#a)" transform="translate(180.714 -419.295)"/><path d="M10.007 27.207c.005.01.03.055.078.124 1.576 1.448 3.247 3.574 5.317 4.35 1.393.89 3.315 1.58 5.185 1.673.466.023.928.018 1.38.012 1.29-.014 2.48-.03 3.36.606.66.476 1.148.534 1.377 1.597.043-.167.097-.432.114-.754v-.43c-.053-.938-.48-2.13-2.103-2.787 0 0-.753-.33-2.842-.6 0 0-4.193-.326-6.43-1.272 0 0-4.38-1.693-5.435-2.52l-.002.003zM13.084 46.124c-2.39 1.56-4.434 2.168-4.434 2.168-.642.166-1.237.234-1.784.234-1.723 0-2.908-.678-3.37-.994 1.38 1.725 3.192 2.834 5.03 2.834.84 0 1.683-.23 2.503-.74 3.178-1.59 5.46-5.29 9.116-6.253-.19-.03-.384-.048-.588-.048-2.752 0-6.474 2.8-6.474 2.8M24.007 43.255c-.927 0-3.332.342-4.936 3.643 0 0-1.78 4.735-3.61 5.932 0 0-1.178.977-3.022.977-.103 0-.722-.054-.828-.062.722.215 1.914.44 2.543.495 6.56.6 7.233-6.284 8.983-10.67.21-.206.545-.288.936-.316h-.065zM65.004 24.05c-1.9 1.422-4.202 2.196-6.52 2.608-1.39.248-2.833.2-4.273.15-1.89-.066-3.778-.13-5.56.477-4.7 1.56-7.766 6.644-7.766 6.644.1-.067.205-.13.306-.195 3.91-4.686 11.49-2.02 16.934-3.62 4.872-1.22 9.472-4.64 11.296-9.522-1.5 1.56-4.416 3.456-4.416 3.456M58.428 35.002c-2.484 1.087-5.29 1.226-7.947.848-1.293-.207-2.54-.656-3.853-.765-1.418-.145-2.894-.15-4.247.354-1.437.478-2.81 1.164-4.035 2.056 1.102-.315 2.266-.248 3.398-.208 1.79.186 3.43 1.022 5.202 1.294 1.685.297 3.406.44 5.115.334 1.12-.09 2.21-.398 3.235-.854 3.744-1.49 7.417-3.4 10.28-6.292.115-.12.513-.504.14-.2-1.87 1.308-3.993 2.187-6.11 3.007-.39.147-.782.29-1.177.425z" fill="#fed230"/><path d="M39.96 28.096c-1.705 3.974-3.543 7.434-6.62 9.662-4.217 3.053-10.14 4.13-15.586 4.13-3.816.227-8.38 2.085-12.296 2.005C3.876 43.86 1.83 42.79.552 41.676c.145.248.31.795.68 1.273.826 1.068 2.252 2.272 3.802 2.39 0 0 2.2.398 5.632-1.06 0 0 5.755-2.085 9.26-2.163 0 0 7.68.07 10.947-1.092 2.467-.88 4.497-1.98 6.598-4.623 2.105-2.64 2.65-4.853 3.328-6.27 0 0 2.04-4.247 4.533-6.26 0 0 3.174-2.723 6.06-3.6 0 0-.073-.106-.294-.198-4.885 1.06-9.393 3.66-11.137 8.022" fill="#eca716"/><path d="M8.69 8.25s1.468 4.134 6.58 7.274c0 0 4.248 2.425 7.36 3.63 0 0 8.024 2.847 8.024 8.05 0 0 .3 2.86.045 3.99l.023-.03c1.15-4.19.97-8.582-2.874-11.143C20.147 14.67 6.12 11.64 8.635.007c-.088.157-1.96 3.565.054 8.245M5.478 14.022c.096 1.964.63 5.264 2.967 7.352 0 0 2.14 2.01 4.43 2.952 0 0 3.674 1.573 6.947 2.48 0 0 6.525 1.313 7.605 4.04 0 0 1.033 1.628.748 3.183 0 0 .027-.05.07-.147.215-2.526-.237-5.188-2.417-6.126-6.055-3.025-12.784-4.032-17.493-8.408-1.545-1.287-2.495-3.163-2.857-5.328zM10.085 27.33c.486.766 3.235 4.84 7.397 6.31 0 0 2.345.974 5.345.852 0 0 .208-.03.53-.046.9-.044 2.684.034 3.29 1.224 0 0 .023.022.057-.103-.18-.833-.52-1.536-.964-1.87-.864-.644-2.146-.395-3.607-.525-2.283-.202-4.964-.922-6.733-2.048-.49-.297-3.74-2.346-5.315-3.793zM11.026 49.626c-2.6 1.626-5.513.417-7.53-2.094-.144-.094-.218-.16-.218-.16.654 1.03 1.4 1.793 1.4 1.793 2.687 2.983 5.766 2.167 5.766 2.167 2.136-.6 5.767-4.872 5.767-4.872 2.502-2.973 3.985-3.08 3.985-3.08l-.05-.007c-3.655.964-5.937 4.665-9.12 6.253M23.136 43.57c-.884.81-1.242 1.992-1.61 3.094-.576 1.757-1.037 3.597-2.08 5.15-.682 1.052-1.797 1.785-3.014 2.057-1.056.223-2.15.362-3.225.184-.537-.076-1.068-.19-1.597-.31.806.344 1.644.628 2.517.738 1.142.18 2.344.388 3.47.02 1.213-.35 2.27-1.17 2.928-2.244.49-.782.82-1.662.96-2.576.304-1.697.867-3.344 1.613-4.897.305-.59.695-1.186 1.296-1.51-.427-.047-.924 0-1.258.294zM69.9 20.04l-.013.018c-.13.175-.29.352-.467.54-.833 2.22-2.233 4.163-4.06 5.666-1.775 1.46-3.793 2.7-6.006 3.37-.704.215-1.42.377-2.144.516-1.827.345-3.613.407-5.46.227-1.926-.188-3.972-.28-5.87.165-1.47.344-2.634 1.273-3.762 2.234-.335.284-.73.7-1.03 1.024 1.38-.838 2.96-1.55 4.54-1.897.835-.18 1.865-.26 2.57-.205 1.893.148 3.766.34 5.666.308.13-.005.257-.006.385-.008 5.923-.428 9.642-3.102 9.642-3.102C70.092 24.98 70 19.902 70 19.902c-.03.045-.065.09-.1.138M54.33 38.097c-1.92.64-4.02.69-5.974.174-1.907-.463-3.724-1.363-5.72-1.4-1.454-.06-2.904.203-4.29.626-.18.13-.432.304-.056.18 2.198-.397 4.448.213 6.433 1.144 2.037 1.14 4.44 1.434 6.74 1.29 1.33-.1 2.617-.492 3.877-.905 4.006-1.394 7.598-3.962 10.217-7.297.166-.216.503-.665.1-.218-3.085 3.155-7.167 5.096-11.328 6.407z" fill="#eca716"/></svg>