<svg xmlns="http://www.w3.org/2000/svg" width="74666.661" height="85099.767" viewBox="0 0 69.999995 79.781031"><path d="M16.245 52.45s-3.842 4.97-.55 11.046c3.954 7.29 9.408 10.76 19.346 10.76 9.94 0 16.82-4.137 19.58-10.76 2.763-6.625-1.085-10.767-1.085-10.767l-17.68-19.88-19.61 19.6zM2.19 0h18.496l14.63 14.36L49.947 0h18.5L44.152 23.742l20.702 21.806s7.453 7.73 4.42 16.288C66.82 68.748 56.85 79.78 35.317 79.78 13.784 79.78 2.19 67.09.532 61.56c-1.653-5.52.825-12.143 3.573-16.012C7.212 41.168 25.93 23.19 25.93 23.19L2.19 0"/></svg>