<svg xmlns="http://www.w3.org/2000/svg" width="74666.661" height="74666.661" viewBox="0 0 69.999995 69.999995"><g transform="matrix(.14 0 0 .14 0 0)"><circle r="247.598" cy="250" cx="250" color="#000" overflow="visible" fill="#ffdf04" stroke="#000" stroke-width="4.804" stroke-opacity=".128"/><path d="M230.546 499.715c-40.25-4.58-66.162-12.026-96.132-27.628C61.347 434.05 13.04 364.95 1.318 281.703c-1.767-12.553-1.755-50.52.02-63.333C17.066 104.936 101.903 18.994 214.696 2.235c17.032-2.53 44.744-2.98 61.773-1 59.997 6.968 108.967 30.5 150.965 72.54 34.83 34.866 57.332 76.04 67.368 123.265 4.37 20.565 5.2 29.012 5.2 52.997 0 23.118-.785 31.66-4.682 50.9-11.794 58.246-46.338 112.71-94.29 148.668-34.916 26.18-70.805 41.2-115.217 48.218-9.25 1.462-47.527 2.773-55.264 1.892zm47.197-6.028c107.163-12.52 193.446-92.436 213.436-197.683 4.74-24.96 5.458-58.54 1.757-82.23C480.26 132.622 429.44 64.06 355.825 28.794 234.65-29.252 88.488 21.58 29.537 142.27 13.325 175.46 5.94 205.72 4.853 243.396c-2.802 97.19 51.222 185.59 139.277 227.9 25.668 12.336 53.73 20.053 84.37 23.205 9.68.995 37.72.53 49.243-.815zm-51.108-14.845C160.052 471.897 100.17 436.72 61.2 381.655c-3.043-4.3-5.345-10.117-5.345-11.026l42.44-.002 1.32 12.578 15.288-12.646h329.384c3.883 0-17.525 27.886-31.627 41.97-34.284 34.245-75.97 55.645-125.355 64.353-13.878 2.446-46.038 3.485-60.67 1.96zM102.71 345.856l-26.588-17.524 28.033-12.233 6.664-28.602 20.126 24.074 30.058-2.437-16.017 24.476 11.042 29.047-28.103-7.406-23.998 19.41zM22.99 286.42c-2.205-5.032-3.38-27.932-2.783-44.555.552-15.424 3.1-35.235 5.848-45.457 5.836-21.713 10.067-33.15 18.37-49.65 11.5-22.854 24.558-40.873 42.897-59.19 35.213-35.174 77.67-56.66 128.398-64.976 15.88-2.604 52.723-2.596 68.52.015C345.97 32.81 396.524 62.954 433.713 111.74c30.225 39.65 46.367 88.174 46.367 139.387 0 12.726-1.678 31.524-3.164 35.427l-.875 1.98H118.117l-9.205-10.445-3.347 10.445h-81.65z" fill="#e51e15"/><path d="M93.923 144.91c-9.223 0-18.654 6.795-18.654 17.474 0 5.964 4.02 11.303 10.887 14.7 6.795 3.4 12.898 5.272 12.898 9.432 0 5.34-5.41 5.617-8.252 5.617-6.38 0-14.008-6.45-14.008-6.45l-6.52 10.958s8.115 7.56 21.5 7.56c11.163 0 21.565-4.785 21.565-18.446 0-7.49-7.004-12.9-13.384-15.603-6.518-2.773-11.927-5.062-11.927-8.25 0-3.122 2.357-5.133 6.795-5.133 5.894 0 11.58 3.953 11.58 3.953l5.27-10.402s-7.35-5.41-17.752-5.41zM149.877 191.37c-13.107 0-18.862-9.153-18.862-16.85 0-7.63 5.755-16.782 18.862-16.782 6.657 0 11.234 3.536 11.234 3.536l5.55-11.095s-6.38-5.27-18.794-5.27c-16.227 0-30.998 13.313-30.998 29.748 0 16.366 14.84 29.542 30.998 29.542 12.413 0 18.793-5.27 18.793-5.27l-5.55-11.096s-4.576 3.537-11.233 3.537zM169.15 174.52c0 16.712 11.926 29.68 28.846 29.68 16.435 0 28.78-12.968 28.78-29.68 0-16.713-12.9-29.61-28.78-29.61-15.74 0-28.847 12.897-28.847 29.61zm14.076 0c0-8.53 4.715-17.06 14.77-17.06 10.125 0 14.702 8.53 14.702 17.06s-4.3 17.06-14.702 17.06c-10.68 0-14.77-8.53-14.77-17.06zM228.922 157.39h13.59v45.77h13.038v-45.77h13.592v-11.44h-40.22v11.44zM270.23 157.39h13.593v45.77h13.037v-45.77h13.592v-11.44h-40.22v11.44zM328.184 145.95h-13.037v57.21h13.037v-57.21zM357.628 144.91c-9.223 0-18.654 6.795-18.654 17.474 0 5.964 4.022 11.303 10.887 14.7 6.797 3.4 12.9 5.272 12.9 9.432 0 5.34-5.41 5.617-8.253 5.617-6.38 0-14.008-6.45-14.008-6.45l-6.52 10.958s8.114 7.56 21.498 7.56c11.165 0 21.567-4.785 21.567-18.446 0-7.49-7.004-12.9-13.384-15.603-6.518-2.773-11.927-5.062-11.927-8.25 0-3.122 2.358-5.133 6.796-5.133 5.894 0 11.58 3.953 11.58 3.953l5.27-10.402s-7.35-5.41-17.752-5.41zM396.175 180.206h18.446v22.953h13.04v-57.21h-13.04v22.814h-18.445V145.95h-13.037v57.21h13.037v-22.954zM83.562 220.468c-9.223 0-18.654 6.796-18.654 17.476 0 5.963 4.022 11.303 10.887 14.7 6.796 3.4 12.9 5.27 12.9 9.432 0 5.34-5.41 5.617-8.254 5.617-6.378 0-14.006-6.45-14.006-6.45l-6.52 10.958s8.115 7.56 21.498 7.56c11.165 0 21.567-4.786 21.567-18.447 0-7.49-7.005-12.898-13.385-15.603-6.518-2.773-11.927-5.062-11.927-8.252 0-3.12 2.357-5.13 6.796-5.13 5.894 0 11.58 3.95 11.58 3.95l5.27-10.4s-7.35-5.41-17.752-5.41zM106.507 250.08c0 16.712 11.927 29.68 28.848 29.68 16.435 0 28.778-12.968 28.778-29.68 0-16.713-12.898-29.612-28.778-29.612-15.742 0-28.848 12.9-28.848 29.61zm14.077 0c0-8.53 4.716-17.06 14.77-17.06 10.125 0 14.702 8.53 14.702 17.06s-4.3 17.058-14.7 17.058c-10.68 0-14.772-8.53-14.772-17.06zM200.33 266.93c-13.108 0-18.863-9.153-18.863-16.85 0-7.63 5.755-16.783 18.862-16.783 6.656 0 11.233 3.537 11.233 3.537l5.548-11.095s-6.38-5.272-18.792-5.272c-16.227 0-30.998 13.315-30.998 29.75 0 16.365 14.84 29.54 30.998 29.54 12.413 0 18.793-5.27 18.793-5.27l-5.547-11.094s-4.577 3.536-11.234 3.536zM235.203 221.51h-13.037v57.21h13.037v-57.21zM272.622 221.51h-12.066l-23.092 57.21h14.007l4.232-11.443h21.774l4.23 11.442h14.008l-23.092-57.21zm.416 34.325H260.14l6.38-16.643 6.518 16.643zM310.915 221.51h-13.037v57.21h32.73v-11.443h-19.693V221.51zM350.058 221.51H337.02v57.21h13.038v-57.21zM379.502 220.468c-9.223 0-18.655 6.796-18.655 17.476 0 5.963 4.023 11.303 10.888 14.7 6.796 3.4 12.898 5.27 12.898 9.432 0 5.34-5.41 5.617-8.252 5.617-6.38 0-14.007-6.45-14.007-6.45l-6.518 10.958s8.113 7.56 21.497 7.56c11.165 0 21.566-4.786 21.566-18.447 0-7.49-7.004-12.898-13.383-15.603-6.52-2.773-11.928-5.062-11.928-8.252 0-3.12 2.358-5.13 6.796-5.13 5.894 0 11.58 3.95 11.58 3.95l5.27-10.4s-7.35-5.41-17.75-5.41zM401.406 232.95h13.592v45.77h13.037v-45.77h13.592v-11.44h-40.22v11.44z" style="line-height:125%;-inkscape-font-specification:'Hussar, Bold';text-align:center" font-weight="bold" font-family="Hussar" letter-spacing="0" word-spacing="0" text-anchor="middle" fill="#ffdf04"/><path d="M192.022 299.717v57.21h13.037v-21.22h7.835c11.165 0 19.556-6.588 19.556-18.377 0-11.858-8.39-17.613-19.555-17.613h-20.873zm13.037 25.588v-15.187h3.674c5.132 0 9.986 1.734 9.986 7.628 0 5.826-4.854 7.56-9.986 7.56h-3.675zM262.794 299.717h-12.066l-23.092 57.21h14.007l4.23-11.442h21.775l4.23 11.442h14.008l-23.092-57.21zm.416 34.326h-12.898l6.38-16.643 6.518 16.643zM288.05 299.717v57.21h13.037V334.32l17.475 22.607h16.574l-19.694-23.647c7.004-2.22 11.72-7.975 11.72-16.574 0-11.234-8.045-16.99-18.655-16.99H288.05zm13.037 25.38v-14.98h1.526c4.923 0 10.818.348 10.818 7.49 0 7.143-5.894 7.49-10.817 7.49h-1.526zM334.15 311.16h13.593v45.767h13.037V311.16h13.592v-11.443h-40.22v11.442z" style="line-height:125%;-inkscape-font-specification:'Hussar, Bold';text-align:center" font-weight="bold" font-family="Hussar" letter-spacing="0" word-spacing="0" text-anchor="middle" fill="#e51e15"/><path d="M372.826 299.717l21.08 31.552v25.657h13.038V331.27l21.08-31.553h-15.67l-11.93 18.307-11.926-18.307h-15.672z" style="line-height:125%;-inkscape-font-specification:'Hussar, Bold';text-align:center" font-weight="bold" font-family="Hussar" letter-spacing="0" word-spacing="0" text-anchor="middle" fill="#e51e15"/></g></svg>