<?xml version="1.0" encoding="UTF-8" standalone="no"?>
<!-- Created with Inkscape (http://www.inkscape.org/) -->

<svg
   xmlns:dc="http://purl.org/dc/elements/1.1/"
   xmlns:cc="http://creativecommons.org/ns#"
   xmlns:rdf="http://www.w3.org/1999/02/22-rdf-syntax-ns#"
   xmlns:svg="http://www.w3.org/2000/svg"
   xmlns="http://www.w3.org/2000/svg"
   xmlns:sodipodi="http://sodipodi.sourceforge.net/DTD/sodipodi-0.dtd"
   xmlns:inkscape="http://www.inkscape.org/namespaces/inkscape"
   width="19.755554mm"
   height="19.755554mm"
   viewBox="0 0 69.999995 69.999995"
   id="svg11825"
   version="1.1"
   inkscape:version="0.91 r13725"
   sodipodi:docname="ssp.svg">
  <defs
     id="defs11827">
    <linearGradient
       x1="0"
       y1="0"
       x2="1"
       y2="0"
       gradientUnits="userSpaceOnUse"
       gradientTransform="matrix(43.699188,36.667908,-36.667908,43.699188,344.83293,531.46098)"
       spreadMethod="pad"
       id="linearGradient3197">
      <stop
         style="stop-opacity:1;stop-color:#fcc215"
         offset="0"
         id="stop3199" />
      <stop
         style="stop-opacity:1;stop-color:#fab41a"
         offset="0.32753"
         id="stop3201" />
      <stop
         style="stop-opacity:1;stop-color:#fab41a"
         offset="0.32753"
         id="stop3203" />
      <stop
         style="stop-opacity:1;stop-color:#fecb0f"
         offset="0.521606"
         id="stop3205" />
      <stop
         style="stop-opacity:1;stop-color:#ffffff"
         offset="1"
         id="stop3207" />
    </linearGradient>
    <linearGradient
       x1="0"
       y1="0"
       x2="1"
       y2="0"
       gradientUnits="userSpaceOnUse"
       gradientTransform="matrix(-63.695709,36.774719,-36.774719,-63.695709,387.44923,539.28073)"
       spreadMethod="pad"
       id="linearGradient3223">
      <stop
         style="stop-opacity:1;stop-color:#f69c20"
         offset="0"
         id="stop3225" />
      <stop
         style="stop-opacity:1;stop-color:#fecb0f"
         offset="0.388733"
         id="stop3227" />
      <stop
         style="stop-opacity:1;stop-color:#ffffff"
         offset="1"
         id="stop3229" />
    </linearGradient>
    <linearGradient
       x1="0"
       y1="0"
       x2="1"
       y2="0"
       gradientUnits="userSpaceOnUse"
       gradientTransform="matrix(-76.497406,-13.488541,13.488541,-76.497406,385.22432,556.31181)"
       spreadMethod="pad"
       id="linearGradient3245">
      <stop
         style="stop-opacity:1;stop-color:#f69c20"
         offset="0"
         id="stop3247" />
      <stop
         style="stop-opacity:1;stop-color:#fecb0f"
         offset="0.401215"
         id="stop3249" />
      <stop
         style="stop-opacity:1;stop-color:#ffffff"
         offset="0.864288"
         id="stop3251" />
      <stop
         style="stop-opacity:1;stop-color:#ffffff"
         offset="1"
         id="stop3253" />
    </linearGradient>
    <linearGradient
       x1="0"
       y1="0"
       x2="1"
       y2="0"
       gradientUnits="userSpaceOnUse"
       gradientTransform="matrix(10.9086,0,0,-10.9086,351.52345,545.87473)"
       spreadMethod="pad"
       id="linearGradient3269">
      <stop
         style="stop-opacity:1;stop-color:#f69c20"
         offset="0"
         id="stop3271" />
      <stop
         style="stop-opacity:1;stop-color:#fecb0f"
         offset="0.5"
         id="stop3273" />
      <stop
         style="stop-opacity:1;stop-color:#ffffff"
         offset="1"
         id="stop3275" />
    </linearGradient>
    <linearGradient
       x1="0"
       y1="0"
       x2="1"
       y2="0"
       gradientUnits="userSpaceOnUse"
       gradientTransform="matrix(-78.324554,1.53e-5,-1.53e-5,-78.324554,382.76971,545.9041)"
       spreadMethod="pad"
       id="linearGradient3291">
      <stop
         style="stop-opacity:1;stop-color:#f7941d"
         offset="0"
         id="stop3293" />
      <stop
         style="stop-opacity:1;stop-color:#f7c628"
         offset="1"
         id="stop3295" />
    </linearGradient>
    <linearGradient
       x1="0"
       y1="0"
       x2="1"
       y2="0"
       gradientUnits="userSpaceOnUse"
       gradientTransform="matrix(43.743378,36.705017,-36.705017,43.743378,345.93065,530.16566)"
       spreadMethod="pad"
       id="linearGradient3311">
      <stop
         style="stop-opacity:1;stop-color:#f69c20"
         offset="0"
         id="stop3313" />
      <stop
         style="stop-opacity:1;stop-color:#fecb0f"
         offset="0.134598"
         id="stop3315" />
      <stop
         style="stop-opacity:1;stop-color:#fecb0f"
         offset="1"
         id="stop3317" />
    </linearGradient>
    <linearGradient
       x1="0"
       y1="0"
       x2="1"
       y2="0"
       gradientUnits="userSpaceOnUse"
       gradientTransform="matrix(3.1322632,8.6058502,8.6058502,-3.1322632,355.0397,530.47197)"
       spreadMethod="pad"
       id="linearGradient3333">
      <stop
         style="stop-opacity:1;stop-color:#f69c20"
         offset="0"
         id="stop3335" />
      <stop
         style="stop-opacity:1;stop-color:#fecb0f"
         offset="0.667084"
         id="stop3337" />
      <stop
         style="stop-opacity:1;stop-color:#fecb0f"
         offset="1"
         id="stop3339" />
    </linearGradient>
    <linearGradient
       x1="0"
       y1="0"
       x2="1"
       y2="0"
       gradientUnits="userSpaceOnUse"
       gradientTransform="matrix(43.737228,36.699951,-36.699951,43.737228,351.29019,523.78398)"
       spreadMethod="pad"
       id="linearGradient3355">
      <stop
         style="stop-opacity:1;stop-color:#f69c20"
         offset="0"
         id="stop3357" />
      <stop
         style="stop-opacity:1;stop-color:#fecb0f"
         offset="0.628372"
         id="stop3359" />
      <stop
         style="stop-opacity:1;stop-color:#ffffff"
         offset="1"
         id="stop3361" />
    </linearGradient>
    <linearGradient
       x1="0"
       y1="0"
       x2="1"
       y2="0"
       gradientUnits="userSpaceOnUse"
       gradientTransform="matrix(43.681824,36.653351,-36.653351,43.681824,352.95485,521.79739)"
       spreadMethod="pad"
       id="linearGradient3377">
      <stop
         style="stop-opacity:1;stop-color:#f69c20"
         offset="0"
         id="stop3379" />
      <stop
         style="stop-opacity:1;stop-color:#fecb0f"
         offset="0.583206"
         id="stop3381" />
      <stop
         style="stop-opacity:1;stop-color:#ffffff"
         offset="1"
         id="stop3383" />
    </linearGradient>
    <linearGradient
       x1="0"
       y1="0"
       x2="1"
       y2="0"
       gradientUnits="userSpaceOnUse"
       gradientTransform="matrix(32.971008,0,0,-32.971008,345.39307,545.00174)"
       spreadMethod="pad"
       id="linearGradient3399">
      <stop
         style="stop-opacity:1;stop-color:#de831d"
         offset="0"
         id="stop3401" />
      <stop
         style="stop-opacity:1;stop-color:#eda919"
         offset="0.272644"
         id="stop3403" />
      <stop
         style="stop-opacity:1;stop-color:#de891d"
         offset="0.518738"
         id="stop3405" />
      <stop
         style="stop-opacity:1;stop-color:#fecb0e"
         offset="1"
         id="stop3407" />
    </linearGradient>
    <linearGradient
       x1="0"
       y1="0"
       x2="1"
       y2="0"
       gradientUnits="userSpaceOnUse"
       gradientTransform="matrix(-8.1751404,22.460998,22.460998,8.1751404,361.83891,544.867)"
       spreadMethod="pad"
       id="linearGradient3423">
      <stop
         style="stop-opacity:1;stop-color:#ce8019"
         offset="0"
         id="stop3425" />
      <stop
         style="stop-opacity:1;stop-color:#fecb0e"
         offset="0.86116"
         id="stop3427" />
      <stop
         style="stop-opacity:1;stop-color:#fecb0e"
         offset="1"
         id="stop3429" />
    </linearGradient>
    <linearGradient
       x1="0"
       y1="0"
       x2="1"
       y2="0"
       gradientUnits="userSpaceOnUse"
       gradientTransform="matrix(-5.8923187,16.189072,16.189072,5.8923187,359.02728,542.60149)"
       spreadMethod="pad"
       id="linearGradient3445">
      <stop
         style="stop-opacity:1;stop-color:#d4831b"
         offset="0"
         id="stop3447" />
      <stop
         style="stop-opacity:1;stop-color:#fecb0e"
         offset="1"
         id="stop3449" />
    </linearGradient>
    <linearGradient
       x1="0"
       y1="0"
       x2="1"
       y2="0"
       gradientUnits="userSpaceOnUse"
       gradientTransform="matrix(-2.9954071,8.2298431,8.2298431,2.9954071,358.48744,541.69994)"
       spreadMethod="pad"
       id="linearGradient3465">
      <stop
         style="stop-opacity:1;stop-color:#de831d"
         offset="0"
         id="stop3467" />
      <stop
         style="stop-opacity:1;stop-color:#fecb0e"
         offset="0.834259"
         id="stop3469" />
      <stop
         style="stop-opacity:1;stop-color:#fecb0e"
         offset="0.834259"
         id="stop3471" />
      <stop
         style="stop-opacity:1;stop-color:#fecb0e"
         offset="1"
         id="stop3473" />
    </linearGradient>
    <linearGradient
       x1="0"
       y1="0"
       x2="1"
       y2="0"
       gradientUnits="userSpaceOnUse"
       gradientTransform="matrix(10.972122,0,0,-10.972122,347.16121,535.48569)"
       spreadMethod="pad"
       id="linearGradient3489">
      <stop
         style="stop-opacity:1;stop-color:#de831d"
         offset="0"
         id="stop3491" />
      <stop
         style="stop-opacity:1;stop-color:#fecb0e"
         offset="1"
         id="stop3493" />
    </linearGradient>
    <linearGradient
       x1="0"
       y1="0"
       x2="1"
       y2="0"
       gradientUnits="userSpaceOnUse"
       gradientTransform="matrix(8.2905426,0,0,-8.2905426,352.56509,534.4637)"
       spreadMethod="pad"
       id="linearGradient3509">
      <stop
         style="stop-opacity:1;stop-color:#d4831b"
         offset="0"
         id="stop3511" />
      <stop
         style="stop-opacity:1;stop-color:#fecb0e"
         offset="0.908035"
         id="stop3513" />
      <stop
         style="stop-opacity:1;stop-color:#fecb0e"
         offset="0.908035"
         id="stop3515" />
      <stop
         style="stop-opacity:1;stop-color:#fecb0e"
         offset="1"
         id="stop3517" />
    </linearGradient>
    <linearGradient
       x1="0"
       y1="0"
       x2="1"
       y2="0"
       gradientUnits="userSpaceOnUse"
       gradientTransform="matrix(18.749542,0,0,-18.749542,371.68384,548.81573)"
       spreadMethod="pad"
       id="linearGradient3533">
      <stop
         style="stop-opacity:1;stop-color:#de891d"
         offset="0"
         id="stop3535" />
      <stop
         style="stop-opacity:1;stop-color:#fecb0e"
         offset="1"
         id="stop3537" />
    </linearGradient>
    <linearGradient
       x1="0"
       y1="0"
       x2="1"
       y2="0"
       gradientUnits="userSpaceOnUse"
       gradientTransform="matrix(18.058029,0,0,-18.058029,369.71021,543.01221)"
       spreadMethod="pad"
       id="linearGradient3553">
      <stop
         style="stop-opacity:1;stop-color:#de891d"
         offset="0"
         id="stop3555" />
      <stop
         style="stop-opacity:1;stop-color:#fecb0e"
         offset="1"
         id="stop3557" />
    </linearGradient>
    <clipPath
       id="clipPath3616-7">
      <path
         inkscape:connector-curvature="0"
         d="m 46.772,673.701 139.843,0 0,139.842 -139.843,0 0,-139.842 z"
         id="path3618-0" />
    </clipPath>
  </defs>
  <sodipodi:namedview
     id="base"
     pagecolor="#ffffff"
     bordercolor="#666666"
     borderopacity="1.0"
     inkscape:pageopacity="0.0"
     inkscape:pageshadow="2"
     inkscape:zoom="3.959798"
     inkscape:cx="37.76408"
     inkscape:cy="25.871005"
     inkscape:document-units="px"
     inkscape:current-layer="layer1"
     showgrid="false"
     fit-margin-top="0"
     fit-margin-left="0"
     fit-margin-right="0"
     fit-margin-bottom="0"
     inkscape:window-width="844"
     inkscape:window-height="389"
     inkscape:window-x="1717"
     inkscape:window-y="319"
     inkscape:window-maximized="0" />
  <metadata
     id="metadata11830">
    <rdf:RDF>
      <cc:Work
         rdf:about="">
        <dc:format>image/svg+xml</dc:format>
        <dc:type
           rdf:resource="http://purl.org/dc/dcmitype/StillImage" />
        <dc:title></dc:title>
      </cc:Work>
    </rdf:RDF>
  </metadata>
  <g
     inkscape:label="Layer 1"
     inkscape:groupmode="layer"
     id="layer1"
     transform="translate(97.723106,-409.92514)">
    <g
       transform="matrix(0.13999999,0,0,0.13999999,-97.72311,409.92514)"
       id="g4227">
      <circle
         r="247.59813"
         cy="250.00002"
         cx="250"
         id="path10626"
         style="color:#000000;display:inline;overflow:visible;visibility:visible;opacity:1;fill:#ffdf04;fill-opacity:1;fill-rule:nonzero;stroke:#000000;stroke-width:4.80373955;stroke-linecap:butt;stroke-linejoin:miter;stroke-miterlimit:4;stroke-dasharray:none;stroke-dashoffset:0;stroke-opacity:0.12765958;marker:none;enable-background:accumulate" />
      <path
         sodipodi:nodetypes="sssssssssssssssssssssscscccccssscscccccccccsssssssssccccccss"
         inkscape:connector-curvature="0"
         id="path10622"
         d="m 230.54642,499.71539 c -40.2509,-4.57972 -66.1622,-12.02663 -96.1321,-27.62846 C 61.346618,434.04904 13.039958,364.95014 1.3183676,281.70349 c -1.76761998,-12.5536 -1.75497998,-50.52194 0.0211,-63.333 C 17.065368,104.93606 101.90232,18.993649 214.69482,2.2351655 c 17.0318,-2.53054295 44.7437,-2.97983065 61.7736,-1.0015221 59.9965,6.9696006 108.9663,30.5009046 150.9649,72.5426766 34.8284,34.86424 57.3314,76.03825 67.3677,123.26401 4.3703,20.56427 5.199,29.0119 5.199,52.99666 0,23.11835 -0.7855,31.65866 -4.6816,50.89971 -11.7942,58.24665 -46.3382,112.71137 -94.2919,148.66792 -34.915,26.17976 -70.8032,41.1992 -115.2152,48.21814 -9.2503,1.46193 -47.5287,2.77284 -55.2649,1.89263 z m 47.1969,-6.02854 c 107.1627,-12.52099 193.4455,-92.4355 213.4356,-197.68236 4.7407,-24.95933 5.4586,-58.54027 1.7581,-82.23075 C 480.26092,132.62193 429.44132,64.060978 355.82492,28.79533 234.64972,-29.253228 88.487618,21.577601 29.536568,142.26875 13.325138,175.45858 5.9387376,205.72031 4.8527276,243.39724 2.0513176,340.58613 56.075218,428.98617 144.12982,471.29826 c 25.6685,12.33424 53.7287,20.05128 84.3712,23.20355 9.6779,0.99557 37.7185,0.53151 49.2423,-0.81496 z m -51.1082,-14.84468 c -66.5833,-6.94491 -126.4644,-42.12292 -165.435102,-97.18722 -3.04265,-4.29924 -5.344877,-10.11741 -5.344877,-11.02645 l 42.44124,0 1.319537,12.57739 15.286602,-12.64565 c 109.79477,0 219.58953,0 329.3843,0 3.88315,0 -17.5252,27.88573 -31.627,41.97118 -34.2834,34.24375 -75.9697,55.64353 -125.3546,64.3511 -13.8779,2.44696 -46.0386,3.48574 -60.6701,1.95962 z M 102.71122,345.85616 76.121518,328.33242 104.15522,316.0988 l 6.6633,-28.60079 20.1272,24.07436 30.0583,-2.43775 -16.0168,24.47614 11.0418,29.04578 -28.1018,-7.40505 -23.9984,19.40849 z M 22.988148,286.4213 c -2.205211,-5.03321 -3.37905,-27.93291 -2.78359,-44.55631 0.5525,-15.42429 3.10146,-35.23477 5.84881,-45.45675 5.83569,-21.71279 10.06676,-33.14881 18.36932,-49.64981 11.49943,-22.85466 24.55813,-40.8737 42.89693,-59.191285 35.213702,-35.17308 77.670102,-56.657892 128.397902,-64.975017 15.8804,-2.603679 52.7233,-2.595817 68.5197,0.01462 61.7332,10.201761 112.2879,40.347365 149.4767,89.132432 30.2254,39.65035 46.3668,88.17445 46.3668,139.38749 0,12.72676 -1.6791,31.52476 -3.1646,35.42724 l -0.8755,1.98086 -357.9247,0 -9.2054,-10.44553 -3.348,10.44553 -81.648392,0 z"
         style="fill:#e51e15" />
      <path
         d="m 93.923311,144.90878 c -9.223018,0 -18.654074,6.79591 -18.654074,17.4752 0,5.96375 4.022068,11.30339 10.887322,14.70135 6.795908,3.39795 12.898356,5.27029 12.898356,9.43105 0,5.33965 -5.408988,5.61703 -8.252174,5.61703 -6.379832,0 -14.007892,-6.44918 -14.007892,-6.44918 l -6.518524,10.95667 c 0,0 8.113482,7.55871 21.49726,7.55871 11.164705,0 21.566605,-4.78487 21.566605,-18.44603 0,-7.48937 -7.00394,-12.89836 -13.383773,-15.60285 -6.518528,-2.77384 -11.927516,-5.06226 -11.927516,-8.25218 0,-3.12057 2.357764,-5.1316 6.795908,-5.1316 5.894411,0 11.580781,3.95272 11.580781,3.95272 l 5.2703,-10.4019 c 0,0 -7.35068,-5.40899 -17.752579,-5.40899 z"
         style="font-style:normal;font-variant:normal;font-weight:bold;font-stretch:normal;font-size:medium;line-height:125%;font-family:Hussar;-inkscape-font-specification:'Hussar, Bold';text-align:center;letter-spacing:0px;word-spacing:0px;writing-mode:lr-tb;text-anchor:middle;fill:#ffdf04;fill-opacity:1;stroke:none;stroke-width:1px;stroke-linecap:butt;stroke-linejoin:miter;stroke-opacity:1"
         id="path3411"
         inkscape:connector-curvature="0" />
      <path
         d="m 149.87687,191.3706 c -13.1064,0 -18.86212,-9.15367 -18.86212,-16.85107 0,-7.62806 5.75572,-16.78174 18.86212,-16.78174 6.65721,0 11.23405,3.53665 11.23405,3.53665 l 5.54768,-11.09536 c 0,0 -6.37983,-5.2703 -18.79277,-5.2703 -16.22696,0 -30.99766,13.31444 -30.99766,29.74944 0,16.36565 14.84004,29.54139 30.99766,29.54139 12.41294,0 18.79277,-5.27029 18.79277,-5.27029 l -5.54768,-11.09536 c 0,0 -4.57684,3.53664 -11.23405,3.53664 z"
         style="font-style:normal;font-variant:normal;font-weight:bold;font-stretch:normal;font-size:medium;line-height:125%;font-family:Hussar;-inkscape-font-specification:'Hussar, Bold';text-align:center;letter-spacing:0px;word-spacing:0px;writing-mode:lr-tb;text-anchor:middle;fill:#ffdf04;fill-opacity:1;stroke:none;stroke-width:1px;stroke-linecap:butt;stroke-linejoin:miter;stroke-opacity:1"
         id="path3413"
         inkscape:connector-curvature="0" />
      <path
         d="m 169.14855,174.51953 c 0,16.71238 11.92751,29.68008 28.84794,29.68008 16.435,0 28.77859,-12.9677 28.77859,-29.68008 0,-16.71239 -12.89836,-29.61075 -28.77859,-29.61075 -15.74155,0 -28.84794,12.89836 -28.84794,29.61075 z m 14.07724,0 c 0,-8.52956 4.71553,-17.05912 14.7707,-17.05912 10.12451,0 14.70135,8.52956 14.70135,17.05912 0,8.52955 -4.29945,17.05911 -14.70135,17.05911 -10.67929,0 -14.7707,-8.52956 -14.7707,-17.05911 z"
         style="font-style:normal;font-variant:normal;font-weight:bold;font-stretch:normal;font-size:medium;line-height:125%;font-family:Hussar;-inkscape-font-specification:'Hussar, Bold';text-align:center;letter-spacing:0px;word-spacing:0px;writing-mode:lr-tb;text-anchor:middle;fill:#ffdf04;fill-opacity:1;stroke:none;stroke-width:1px;stroke-linecap:butt;stroke-linejoin:miter;stroke-opacity:1"
         id="path3415"
         inkscape:connector-curvature="0" />
      <path
         d="m 228.92156,157.39106 13.59182,0 0,45.76836 13.03705,0 0,-45.76836 13.59181,0 0,-11.44209 -40.22068,0 0,11.44209 z"
         style="font-style:normal;font-variant:normal;font-weight:bold;font-stretch:normal;font-size:medium;line-height:125%;font-family:Hussar;-inkscape-font-specification:'Hussar, Bold';text-align:center;letter-spacing:0px;word-spacing:0px;writing-mode:lr-tb;text-anchor:middle;fill:#ffdf04;fill-opacity:1;stroke:none;stroke-width:1px;stroke-linecap:butt;stroke-linejoin:miter;stroke-opacity:1"
         id="path3417"
         inkscape:connector-curvature="0" />
      <path
         d="m 270.23118,157.39106 13.59181,0 0,45.76836 13.03705,0 0,-45.76836 13.59182,0 0,-11.44209 -40.22068,0 0,11.44209 z"
         style="font-style:normal;font-variant:normal;font-weight:bold;font-stretch:normal;font-size:medium;line-height:125%;font-family:Hussar;-inkscape-font-specification:'Hussar, Bold';text-align:center;letter-spacing:0px;word-spacing:0px;writing-mode:lr-tb;text-anchor:middle;fill:#ffdf04;fill-opacity:1;stroke:none;stroke-width:1px;stroke-linecap:butt;stroke-linejoin:miter;stroke-opacity:1"
         id="path3419"
         inkscape:connector-curvature="0" />
      <path
         d="m 328.18385,145.94897 -13.03705,0 0,57.21045 13.03705,0 0,-57.21045 z"
         style="font-style:normal;font-variant:normal;font-weight:bold;font-stretch:normal;font-size:medium;line-height:125%;font-family:Hussar;-inkscape-font-specification:'Hussar, Bold';text-align:center;letter-spacing:0px;word-spacing:0px;writing-mode:lr-tb;text-anchor:middle;fill:#ffdf04;fill-opacity:1;stroke:none;stroke-width:1px;stroke-linecap:butt;stroke-linejoin:miter;stroke-opacity:1"
         id="path3421"
         inkscape:connector-curvature="0" />
      <path
         d="m 357.62772,144.90878 c -9.22302,0 -18.65407,6.79591 -18.65407,17.4752 0,5.96375 4.02206,11.30339 10.88732,14.70135 6.79591,3.39795 12.89835,5.27029 12.89835,9.43105 0,5.33965 -5.40898,5.61703 -8.25217,5.61703 -6.37983,0 -14.00789,-6.44918 -14.00789,-6.44918 l -6.51853,10.95667 c 0,0 8.11349,7.55871 21.49726,7.55871 11.16471,0 21.56661,-4.78487 21.56661,-18.44603 0,-7.48937 -7.00395,-12.89836 -13.38378,-15.60285 -6.51852,-2.77384 -11.92751,-5.06226 -11.92751,-8.25218 0,-3.12057 2.35776,-5.1316 6.79591,-5.1316 5.89441,0 11.58078,3.95272 11.58078,3.95272 l 5.2703,-10.4019 c 0,0 -7.35068,-5.40899 -17.75258,-5.40899 z"
         style="font-style:normal;font-variant:normal;font-weight:bold;font-stretch:normal;font-size:medium;line-height:125%;font-family:Hussar;-inkscape-font-specification:'Hussar, Bold';text-align:center;letter-spacing:0px;word-spacing:0px;writing-mode:lr-tb;text-anchor:middle;fill:#ffdf04;fill-opacity:1;stroke:none;stroke-width:1px;stroke-linecap:butt;stroke-linejoin:miter;stroke-opacity:1"
         id="path3423"
         inkscape:connector-curvature="0" />
      <path
         d="m 396.17544,180.2059 18.44604,0 0,22.95352 13.03705,0 0,-57.21045 -13.03705,0 0,22.81484 -18.44604,0 0,-22.81484 -13.03705,0 0,57.21045 13.03705,0 0,-22.95352 z"
         style="font-style:normal;font-variant:normal;font-weight:bold;font-stretch:normal;font-size:medium;line-height:125%;font-family:Hussar;-inkscape-font-specification:'Hussar, Bold';text-align:center;letter-spacing:0px;word-spacing:0px;writing-mode:lr-tb;text-anchor:middle;fill:#ffdf04;fill-opacity:1;stroke:none;stroke-width:1px;stroke-linecap:butt;stroke-linejoin:miter;stroke-opacity:1"
         id="path3425"
         inkscape:connector-curvature="0" />
      <path
         d="m 83.562043,220.4684 c -9.223018,0 -18.654074,6.79591 -18.654074,17.4752 0,5.96375 4.022068,11.30339 10.887322,14.70135 6.795908,3.39795 12.898356,5.27029 12.898356,9.43105 0,5.33965 -5.408988,5.61703 -8.252174,5.61703 -6.379832,0 -14.007892,-6.44918 -14.007892,-6.44918 l -6.518524,10.95667 c 0,0 8.113482,7.55871 21.49726,7.55871 11.164706,0 21.566613,-4.78487 21.566613,-18.44603 0,-7.48937 -7.003953,-12.89836 -13.383785,-15.60285 -6.518524,-2.77384 -11.927512,-5.06226 -11.927512,-8.25218 0,-3.12057 2.357764,-5.1316 6.795908,-5.1316 5.89441,0 11.580782,3.95272 11.580782,3.95272 l 5.270297,-10.4019 c 0,0 -7.350677,-5.40899 -17.752577,-5.40899 z"
         style="font-style:normal;font-variant:normal;font-weight:bold;font-stretch:normal;font-size:medium;line-height:125%;font-family:Hussar;-inkscape-font-specification:'Hussar, Bold';text-align:center;letter-spacing:0px;word-spacing:0px;writing-mode:lr-tb;text-anchor:middle;fill:#ffdf04;fill-opacity:1;stroke:none;stroke-width:1px;stroke-linecap:butt;stroke-linejoin:miter;stroke-opacity:1"
         id="path3427"
         inkscape:connector-curvature="0" />
      <path
         d="m 106.5069,250.07915 c 0,16.71238 11.92751,29.68008 28.84794,29.68008 16.435,0 28.77859,-12.9677 28.77859,-29.68008 0,-16.71239 -12.89836,-29.61075 -28.77859,-29.61075 -15.74154,0 -28.84794,12.89836 -28.84794,29.61075 z m 14.07724,0 c 0,-8.52956 4.71553,-17.05912 14.7707,-17.05912 10.12451,0 14.70135,8.52956 14.70135,17.05912 0,8.52955 -4.29945,17.05911 -14.70135,17.05911 -10.67929,0 -14.7707,-8.52956 -14.7707,-17.05911 z"
         style="font-style:normal;font-variant:normal;font-weight:bold;font-stretch:normal;font-size:medium;line-height:125%;font-family:Hussar;-inkscape-font-specification:'Hussar, Bold';text-align:center;letter-spacing:0px;word-spacing:0px;writing-mode:lr-tb;text-anchor:middle;fill:#ffdf04;fill-opacity:1;stroke:none;stroke-width:1px;stroke-linecap:butt;stroke-linejoin:miter;stroke-opacity:1"
         id="path3429"
         inkscape:connector-curvature="0" />
      <path
         d="m 200.32879,266.93022 c -13.1064,0 -18.86212,-9.15367 -18.86212,-16.85107 0,-7.62806 5.75572,-16.78174 18.86212,-16.78174 6.65721,0 11.23405,3.53665 11.23405,3.53665 l 5.54768,-11.09536 c 0,0 -6.37983,-5.2703 -18.79277,-5.2703 -16.22696,0 -30.99766,13.31444 -30.99766,29.74944 0,16.36565 14.84004,29.54139 30.99766,29.54139 12.41294,0 18.79277,-5.27029 18.79277,-5.27029 l -5.54768,-11.09536 c 0,0 -4.57684,3.53664 -11.23405,3.53664 z"
         style="font-style:normal;font-variant:normal;font-weight:bold;font-stretch:normal;font-size:medium;line-height:125%;font-family:Hussar;-inkscape-font-specification:'Hussar, Bold';text-align:center;letter-spacing:0px;word-spacing:0px;writing-mode:lr-tb;text-anchor:middle;fill:#ffdf04;fill-opacity:1;stroke:none;stroke-width:1px;stroke-linecap:butt;stroke-linejoin:miter;stroke-opacity:1"
         id="path3431-5"
         inkscape:connector-curvature="0" />
      <path
         d="m 235.20333,221.50859 -13.03704,0 0,57.21045 13.03704,0 0,-57.21045 z"
         style="font-style:normal;font-variant:normal;font-weight:bold;font-stretch:normal;font-size:medium;line-height:125%;font-family:Hussar;-inkscape-font-specification:'Hussar, Bold';text-align:center;letter-spacing:0px;word-spacing:0px;writing-mode:lr-tb;text-anchor:middle;fill:#ffdf04;fill-opacity:1;stroke:none;stroke-width:1px;stroke-linecap:butt;stroke-linejoin:miter;stroke-opacity:1"
         id="path3433"
         inkscape:connector-curvature="0" />
      <path
         d="m 272.622,221.50859 -12.06621,0 -23.09222,57.21045 14.0079,0 4.2301,-11.44209 21.77465,0 4.2301,11.44209 14.00789,0 -23.09221,-57.21045 z m 0.41607,34.32627 -12.89835,0 6.37983,-16.64304 6.51852,16.64304 z"
         style="font-style:normal;font-variant:normal;font-weight:bold;font-stretch:normal;font-size:medium;line-height:125%;font-family:Hussar;-inkscape-font-specification:'Hussar, Bold';text-align:center;letter-spacing:0px;word-spacing:0px;writing-mode:lr-tb;text-anchor:middle;fill:#ffdf04;fill-opacity:1;stroke:none;stroke-width:1px;stroke-linecap:butt;stroke-linejoin:miter;stroke-opacity:1"
         id="path3435"
         inkscape:connector-curvature="0" />
      <path
         d="m 310.91507,221.50859 -13.03705,0 0,57.21045 32.73131,0 0,-11.44209 -19.69426,0 0,-45.76836 z"
         style="font-style:normal;font-variant:normal;font-weight:bold;font-stretch:normal;font-size:medium;line-height:125%;font-family:Hussar;-inkscape-font-specification:'Hussar, Bold';text-align:center;letter-spacing:0px;word-spacing:0px;writing-mode:lr-tb;text-anchor:middle;fill:#ffdf04;fill-opacity:1;stroke:none;stroke-width:1px;stroke-linecap:butt;stroke-linejoin:miter;stroke-opacity:1"
         id="path3437"
         inkscape:connector-curvature="0" />
      <path
         d="m 350.05764,221.50859 -13.03704,0 0,57.21045 13.03704,0 0,-57.21045 z"
         style="font-style:normal;font-variant:normal;font-weight:bold;font-stretch:normal;font-size:medium;line-height:125%;font-family:Hussar;-inkscape-font-specification:'Hussar, Bold';text-align:center;letter-spacing:0px;word-spacing:0px;writing-mode:lr-tb;text-anchor:middle;fill:#ffdf04;fill-opacity:1;stroke:none;stroke-width:1px;stroke-linecap:butt;stroke-linejoin:miter;stroke-opacity:1"
         id="path3439"
         inkscape:connector-curvature="0" />
      <path
         d="m 379.50153,220.4684 c -9.22302,0 -18.65407,6.79591 -18.65407,17.4752 0,5.96375 4.02206,11.30339 10.88732,14.70135 6.79591,3.39795 12.89835,5.27029 12.89835,9.43105 0,5.33965 -5.40898,5.61703 -8.25217,5.61703 -6.37983,0 -14.00789,-6.44918 -14.00789,-6.44918 l -6.51853,10.95667 c 0,0 8.11349,7.55871 21.49726,7.55871 11.16471,0 21.56661,-4.78487 21.56661,-18.44603 0,-7.48937 -7.00395,-12.89836 -13.38378,-15.60285 -6.51852,-2.77384 -11.92751,-5.06226 -11.92751,-8.25218 0,-3.12057 2.35776,-5.1316 6.79591,-5.1316 5.89441,0 11.58078,3.95272 11.58078,3.95272 l 5.2703,-10.4019 c 0,0 -7.35068,-5.40899 -17.75258,-5.40899 z"
         style="font-style:normal;font-variant:normal;font-weight:bold;font-stretch:normal;font-size:medium;line-height:125%;font-family:Hussar;-inkscape-font-specification:'Hussar, Bold';text-align:center;letter-spacing:0px;word-spacing:0px;writing-mode:lr-tb;text-anchor:middle;fill:#ffdf04;fill-opacity:1;stroke:none;stroke-width:1px;stroke-linecap:butt;stroke-linejoin:miter;stroke-opacity:1"
         id="path3441"
         inkscape:connector-curvature="0" />
      <path
         d="m 401.40618,232.95068 13.59182,0 0,45.76836 13.03705,0 0,-45.76836 13.59181,0 0,-11.44209 -40.22068,0 0,11.44209 z"
         style="font-style:normal;font-variant:normal;font-weight:bold;font-stretch:normal;font-size:medium;line-height:125%;font-family:Hussar;-inkscape-font-specification:'Hussar, Bold';text-align:center;letter-spacing:0px;word-spacing:0px;writing-mode:lr-tb;text-anchor:middle;fill:#ffdf04;fill-opacity:1;stroke:none;stroke-width:1px;stroke-linecap:butt;stroke-linejoin:miter;stroke-opacity:1"
         id="path3443"
         inkscape:connector-curvature="0" />
      <path
         d="m 192.02207,299.71651 0,57.21046 13.03705,0 0,-21.21988 7.8361,0 c 11.1647,0 19.55557,-6.58787 19.55557,-18.37669 0,-11.85817 -8.39087,-17.61389 -19.55557,-17.61389 l -20.87315,0 z m 13.03705,25.58868 0,-15.18677 3.67534,0 c 5.1316,0 9.98582,1.73365 9.98582,7.62806 0,5.82506 -4.85422,7.55871 -9.98582,7.55871 l -3.67534,0 z"
         style="font-style:normal;font-variant:normal;font-weight:bold;font-stretch:normal;font-size:medium;line-height:125%;font-family:Hussar;-inkscape-font-specification:'Hussar, Bold';text-align:center;letter-spacing:0px;word-spacing:0px;writing-mode:lr-tb;text-anchor:middle;fill:#e51e15;fill-opacity:1;stroke:none;stroke-width:1px;stroke-linecap:butt;stroke-linejoin:miter;stroke-opacity:1"
         id="path3445"
         inkscape:connector-curvature="0" />
      <path
         d="m 262.794,299.71651 -12.06621,0 -23.09221,57.21046 14.00789,0 4.2301,-11.44209 21.77465,0 4.2301,11.44209 14.0079,0 -23.09222,-57.21046 z m 0.41607,34.32628 -12.89835,0 6.37983,-16.64304 6.51852,16.64304 z"
         style="font-style:normal;font-variant:normal;font-weight:bold;font-stretch:normal;font-size:medium;line-height:125%;font-family:Hussar;-inkscape-font-specification:'Hussar, Bold';text-align:center;letter-spacing:0px;word-spacing:0px;writing-mode:lr-tb;text-anchor:middle;fill:#e51e15;fill-opacity:1;stroke:none;stroke-width:1px;stroke-linecap:butt;stroke-linejoin:miter;stroke-opacity:1"
         id="path3447"
         inkscape:connector-curvature="0" />
      <path
         d="m 288.05002,299.71651 0,57.21046 13.03705,0 0,-22.6068 17.47519,22.6068 16.5737,0 -19.69427,-23.64699 c 7.00395,-2.21907 11.71948,-7.97479 11.71948,-16.57369 0,-11.23406 -8.04414,-16.98978 -18.65408,-16.98978 l -20.45707,0 z m 13.03705,25.38064 0,-14.97873 1.52561,0 c 4.92357,0 10.81798,0.34673 10.81798,7.48936 0,7.14264 -5.89441,7.48937 -10.81798,7.48937 l -1.52561,0 z"
         style="font-style:normal;font-variant:normal;font-weight:bold;font-stretch:normal;font-size:medium;line-height:125%;font-family:Hussar;-inkscape-font-specification:'Hussar, Bold';text-align:center;letter-spacing:0px;word-spacing:0px;writing-mode:lr-tb;text-anchor:middle;fill:#e51e15;fill-opacity:1;stroke:none;stroke-width:1px;stroke-linecap:butt;stroke-linejoin:miter;stroke-opacity:1"
         id="path3449"
         inkscape:connector-curvature="0" />
      <path
         d="m 334.15103,311.15861 13.59182,0 0,45.76836 13.03705,0 0,-45.76836 13.59181,0 0,-11.4421 -40.22068,0 0,11.4421 z"
         style="font-style:normal;font-variant:normal;font-weight:bold;font-stretch:normal;font-size:medium;line-height:125%;font-family:Hussar;-inkscape-font-specification:'Hussar, Bold';text-align:center;letter-spacing:0px;word-spacing:0px;writing-mode:lr-tb;text-anchor:middle;fill:#e51e15;fill-opacity:1;stroke:none;stroke-width:1px;stroke-linecap:butt;stroke-linejoin:miter;stroke-opacity:1"
         id="path3451-5"
         inkscape:connector-curvature="0" />
      <path
         d="m 372.82552,299.71651 21.08118,31.55244 0,25.65802 13.03705,0 0,-25.65802 21.08118,-31.55244 -15.67219,0 -11.92752,18.30735 -11.92751,-18.30735 -15.67219,0 z"
         style="font-style:normal;font-variant:normal;font-weight:bold;font-stretch:normal;font-size:medium;line-height:125%;font-family:Hussar;-inkscape-font-specification:'Hussar, Bold';text-align:center;letter-spacing:0px;word-spacing:0px;writing-mode:lr-tb;text-anchor:middle;fill:#e51e15;fill-opacity:1;stroke:none;stroke-width:1px;stroke-linecap:butt;stroke-linejoin:miter;stroke-opacity:1"
         id="path3453"
         inkscape:connector-curvature="0" />
    </g>
  </g>
</svg>
