<?xml version="1.0" encoding="UTF-8" standalone="no"?>
<!-- Created with Inkscape (http://www.inkscape.org/) -->

<svg
   xmlns:dc="http://purl.org/dc/elements/1.1/"
   xmlns:cc="http://creativecommons.org/ns#"
   xmlns:rdf="http://www.w3.org/1999/02/22-rdf-syntax-ns#"
   xmlns:svg="http://www.w3.org/2000/svg"
   xmlns="http://www.w3.org/2000/svg"
   xmlns:sodipodi="http://sodipodi.sourceforge.net/DTD/sodipodi-0.dtd"
   xmlns:inkscape="http://www.inkscape.org/namespaces/inkscape"
   width="18.344444mm"
   height="14.312941mm"
   viewBox="0 0 64.999999 50.715144"
   id="svg4950"
   version="1.1"
   inkscape:version="0.91 r13725"
   sodipodi:docname="tories.svg">
  <defs
     id="defs4952">
    <clipPath
       id="clipPath3616">
      <path
         inkscape:connector-curvature="0"
         id="path3618"
         d="m 46.772,673.701 139.843,0 0,139.842 -139.843,0 0,-139.842 z" />
    </clipPath>
    <clipPath
       id="clipPath3616-7">
      <path
         inkscape:connector-curvature="0"
         d="m 46.772,673.701 139.843,0 0,139.842 -139.843,0 0,-139.842 z"
         id="path3618-0" />
    </clipPath>
    <linearGradient
       x1="0"
       y1="0"
       x2="1"
       y2="0"
       gradientUnits="userSpaceOnUse"
       gradientTransform="matrix(43.699188,36.667908,-36.667908,43.699188,344.83293,531.46098)"
       spreadMethod="pad"
       id="linearGradient3197">
      <stop
         style="stop-opacity:1;stop-color:#fcc215"
         offset="0"
         id="stop3199" />
      <stop
         style="stop-opacity:1;stop-color:#fab41a"
         offset="0.32753"
         id="stop3201" />
      <stop
         style="stop-opacity:1;stop-color:#fab41a"
         offset="0.32753"
         id="stop3203" />
      <stop
         style="stop-opacity:1;stop-color:#fecb0f"
         offset="0.521606"
         id="stop3205" />
      <stop
         style="stop-opacity:1;stop-color:#ffffff"
         offset="1"
         id="stop3207" />
    </linearGradient>
    <linearGradient
       x1="0"
       y1="0"
       x2="1"
       y2="0"
       gradientUnits="userSpaceOnUse"
       gradientTransform="matrix(-63.695709,36.774719,-36.774719,-63.695709,387.44923,539.28073)"
       spreadMethod="pad"
       id="linearGradient3223">
      <stop
         style="stop-opacity:1;stop-color:#f69c20"
         offset="0"
         id="stop3225" />
      <stop
         style="stop-opacity:1;stop-color:#fecb0f"
         offset="0.388733"
         id="stop3227" />
      <stop
         style="stop-opacity:1;stop-color:#ffffff"
         offset="1"
         id="stop3229" />
    </linearGradient>
    <linearGradient
       x1="0"
       y1="0"
       x2="1"
       y2="0"
       gradientUnits="userSpaceOnUse"
       gradientTransform="matrix(-76.497406,-13.488541,13.488541,-76.497406,385.22432,556.31181)"
       spreadMethod="pad"
       id="linearGradient3245">
      <stop
         style="stop-opacity:1;stop-color:#f69c20"
         offset="0"
         id="stop3247" />
      <stop
         style="stop-opacity:1;stop-color:#fecb0f"
         offset="0.401215"
         id="stop3249" />
      <stop
         style="stop-opacity:1;stop-color:#ffffff"
         offset="0.864288"
         id="stop3251" />
      <stop
         style="stop-opacity:1;stop-color:#ffffff"
         offset="1"
         id="stop3253" />
    </linearGradient>
    <linearGradient
       x1="0"
       y1="0"
       x2="1"
       y2="0"
       gradientUnits="userSpaceOnUse"
       gradientTransform="matrix(10.9086,0,0,-10.9086,351.52345,545.87473)"
       spreadMethod="pad"
       id="linearGradient3269">
      <stop
         style="stop-opacity:1;stop-color:#f69c20"
         offset="0"
         id="stop3271" />
      <stop
         style="stop-opacity:1;stop-color:#fecb0f"
         offset="0.5"
         id="stop3273" />
      <stop
         style="stop-opacity:1;stop-color:#ffffff"
         offset="1"
         id="stop3275" />
    </linearGradient>
    <linearGradient
       x1="0"
       y1="0"
       x2="1"
       y2="0"
       gradientUnits="userSpaceOnUse"
       gradientTransform="matrix(-78.324554,1.53e-5,-1.53e-5,-78.324554,382.76971,545.9041)"
       spreadMethod="pad"
       id="linearGradient3291">
      <stop
         style="stop-opacity:1;stop-color:#f7941d"
         offset="0"
         id="stop3293" />
      <stop
         style="stop-opacity:1;stop-color:#f7c628"
         offset="1"
         id="stop3295" />
    </linearGradient>
    <linearGradient
       x1="0"
       y1="0"
       x2="1"
       y2="0"
       gradientUnits="userSpaceOnUse"
       gradientTransform="matrix(43.743378,36.705017,-36.705017,43.743378,345.93065,530.16566)"
       spreadMethod="pad"
       id="linearGradient3311">
      <stop
         style="stop-opacity:1;stop-color:#f69c20"
         offset="0"
         id="stop3313" />
      <stop
         style="stop-opacity:1;stop-color:#fecb0f"
         offset="0.134598"
         id="stop3315" />
      <stop
         style="stop-opacity:1;stop-color:#fecb0f"
         offset="1"
         id="stop3317" />
    </linearGradient>
    <linearGradient
       x1="0"
       y1="0"
       x2="1"
       y2="0"
       gradientUnits="userSpaceOnUse"
       gradientTransform="matrix(3.1322632,8.6058502,8.6058502,-3.1322632,355.0397,530.47197)"
       spreadMethod="pad"
       id="linearGradient3333">
      <stop
         style="stop-opacity:1;stop-color:#f69c20"
         offset="0"
         id="stop3335" />
      <stop
         style="stop-opacity:1;stop-color:#fecb0f"
         offset="0.667084"
         id="stop3337" />
      <stop
         style="stop-opacity:1;stop-color:#fecb0f"
         offset="1"
         id="stop3339" />
    </linearGradient>
    <linearGradient
       x1="0"
       y1="0"
       x2="1"
       y2="0"
       gradientUnits="userSpaceOnUse"
       gradientTransform="matrix(43.737228,36.699951,-36.699951,43.737228,351.29019,523.78398)"
       spreadMethod="pad"
       id="linearGradient3355">
      <stop
         style="stop-opacity:1;stop-color:#f69c20"
         offset="0"
         id="stop3357" />
      <stop
         style="stop-opacity:1;stop-color:#fecb0f"
         offset="0.628372"
         id="stop3359" />
      <stop
         style="stop-opacity:1;stop-color:#ffffff"
         offset="1"
         id="stop3361" />
    </linearGradient>
    <linearGradient
       x1="0"
       y1="0"
       x2="1"
       y2="0"
       gradientUnits="userSpaceOnUse"
       gradientTransform="matrix(43.681824,36.653351,-36.653351,43.681824,352.95485,521.79739)"
       spreadMethod="pad"
       id="linearGradient3377">
      <stop
         style="stop-opacity:1;stop-color:#f69c20"
         offset="0"
         id="stop3379" />
      <stop
         style="stop-opacity:1;stop-color:#fecb0f"
         offset="0.583206"
         id="stop3381" />
      <stop
         style="stop-opacity:1;stop-color:#ffffff"
         offset="1"
         id="stop3383" />
    </linearGradient>
    <linearGradient
       x1="0"
       y1="0"
       x2="1"
       y2="0"
       gradientUnits="userSpaceOnUse"
       gradientTransform="matrix(32.971008,0,0,-32.971008,345.39307,545.00174)"
       spreadMethod="pad"
       id="linearGradient3399">
      <stop
         style="stop-opacity:1;stop-color:#de831d"
         offset="0"
         id="stop3401" />
      <stop
         style="stop-opacity:1;stop-color:#eda919"
         offset="0.272644"
         id="stop3403" />
      <stop
         style="stop-opacity:1;stop-color:#de891d"
         offset="0.518738"
         id="stop3405" />
      <stop
         style="stop-opacity:1;stop-color:#fecb0e"
         offset="1"
         id="stop3407" />
    </linearGradient>
    <linearGradient
       x1="0"
       y1="0"
       x2="1"
       y2="0"
       gradientUnits="userSpaceOnUse"
       gradientTransform="matrix(-8.1751404,22.460998,22.460998,8.1751404,361.83891,544.867)"
       spreadMethod="pad"
       id="linearGradient3423">
      <stop
         style="stop-opacity:1;stop-color:#ce8019"
         offset="0"
         id="stop3425" />
      <stop
         style="stop-opacity:1;stop-color:#fecb0e"
         offset="0.86116"
         id="stop3427" />
      <stop
         style="stop-opacity:1;stop-color:#fecb0e"
         offset="1"
         id="stop3429" />
    </linearGradient>
    <linearGradient
       x1="0"
       y1="0"
       x2="1"
       y2="0"
       gradientUnits="userSpaceOnUse"
       gradientTransform="matrix(-5.8923187,16.189072,16.189072,5.8923187,359.02728,542.60149)"
       spreadMethod="pad"
       id="linearGradient3445">
      <stop
         style="stop-opacity:1;stop-color:#d4831b"
         offset="0"
         id="stop3447" />
      <stop
         style="stop-opacity:1;stop-color:#fecb0e"
         offset="1"
         id="stop3449" />
    </linearGradient>
    <linearGradient
       x1="0"
       y1="0"
       x2="1"
       y2="0"
       gradientUnits="userSpaceOnUse"
       gradientTransform="matrix(-2.9954071,8.2298431,8.2298431,2.9954071,358.48744,541.69994)"
       spreadMethod="pad"
       id="linearGradient3465">
      <stop
         style="stop-opacity:1;stop-color:#de831d"
         offset="0"
         id="stop3467" />
      <stop
         style="stop-opacity:1;stop-color:#fecb0e"
         offset="0.834259"
         id="stop3469" />
      <stop
         style="stop-opacity:1;stop-color:#fecb0e"
         offset="0.834259"
         id="stop3471" />
      <stop
         style="stop-opacity:1;stop-color:#fecb0e"
         offset="1"
         id="stop3473" />
    </linearGradient>
    <linearGradient
       x1="0"
       y1="0"
       x2="1"
       y2="0"
       gradientUnits="userSpaceOnUse"
       gradientTransform="matrix(10.972122,0,0,-10.972122,347.16121,535.48569)"
       spreadMethod="pad"
       id="linearGradient3489">
      <stop
         style="stop-opacity:1;stop-color:#de831d"
         offset="0"
         id="stop3491" />
      <stop
         style="stop-opacity:1;stop-color:#fecb0e"
         offset="1"
         id="stop3493" />
    </linearGradient>
    <linearGradient
       x1="0"
       y1="0"
       x2="1"
       y2="0"
       gradientUnits="userSpaceOnUse"
       gradientTransform="matrix(8.2905426,0,0,-8.2905426,352.56509,534.4637)"
       spreadMethod="pad"
       id="linearGradient3509">
      <stop
         style="stop-opacity:1;stop-color:#d4831b"
         offset="0"
         id="stop3511" />
      <stop
         style="stop-opacity:1;stop-color:#fecb0e"
         offset="0.908035"
         id="stop3513" />
      <stop
         style="stop-opacity:1;stop-color:#fecb0e"
         offset="0.908035"
         id="stop3515" />
      <stop
         style="stop-opacity:1;stop-color:#fecb0e"
         offset="1"
         id="stop3517" />
    </linearGradient>
    <linearGradient
       x1="0"
       y1="0"
       x2="1"
       y2="0"
       gradientUnits="userSpaceOnUse"
       gradientTransform="matrix(18.749542,0,0,-18.749542,371.68384,548.81573)"
       spreadMethod="pad"
       id="linearGradient3533">
      <stop
         style="stop-opacity:1;stop-color:#de891d"
         offset="0"
         id="stop3535" />
      <stop
         style="stop-opacity:1;stop-color:#fecb0e"
         offset="1"
         id="stop3537" />
    </linearGradient>
    <linearGradient
       x1="0"
       y1="0"
       x2="1"
       y2="0"
       gradientUnits="userSpaceOnUse"
       gradientTransform="matrix(18.058029,0,0,-18.058029,369.71021,543.01221)"
       spreadMethod="pad"
       id="linearGradient3553">
      <stop
         style="stop-opacity:1;stop-color:#de891d"
         offset="0"
         id="stop3555" />
      <stop
         style="stop-opacity:1;stop-color:#fecb0e"
         offset="1"
         id="stop3557" />
    </linearGradient>
  </defs>
  <sodipodi:namedview
     id="base"
     pagecolor="#ffffff"
     bordercolor="#666666"
     borderopacity="1.0"
     inkscape:pageopacity="0.0"
     inkscape:pageshadow="2"
     inkscape:zoom="0.98994949"
     inkscape:cx="-68.636913"
     inkscape:cy="-10.858519"
     inkscape:document-units="px"
     inkscape:current-layer="layer1"
     showgrid="false"
     fit-margin-top="0"
     fit-margin-left="0"
     fit-margin-right="0"
     fit-margin-bottom="0"
     inkscape:window-width="1680"
     inkscape:window-height="980"
     inkscape:window-x="0"
     inkscape:window-y="25"
     inkscape:window-maximized="1" />
  <metadata
     id="metadata4955">
    <rdf:RDF>
      <cc:Work
         rdf:about="">
        <dc:format>image/svg+xml</dc:format>
        <dc:type
           rdf:resource="http://purl.org/dc/dcmitype/StillImage" />
        <dc:title></dc:title>
      </cc:Work>
    </rdf:RDF>
  </metadata>
  <g
     inkscape:label="Layer 1"
     inkscape:groupmode="layer"
     id="layer1"
     transform="translate(-321.26844,-226.94955)">
    <g
       transform="matrix(0.10428365,0,0,0.10428365,291.71445,232.5183)"
       id="g6687">
      <path
         style="fill:#e63329"
         inkscape:connector-curvature="0"
         id="path6105"
         d="m 302.8,276.3 c 7.2,-9.2 17.8,-22.3 30.9,-36.6 l 47.3,0 -78.2,36.6 z m -10.3,-169.4 6.1,3.6 49.7,0 c 0.9,-0.6 1.8,-1.2 2.7,-1.8 L 304,81 c -4.2,8.3 -7.9,17 -11.5,25.9 m 421.8,183 c -2.8,5 -7.2,13.3 -10,21 -0.6,1.6 -1.1,3.2 -1.6,4.8 l 58.8,34.6 c 7.5,-3.9 16.3,-8.7 26.3,-14.5 0.8,-0.4 1.5,-0.9 2.2,-1.3 l -75.7,-44.6 z m 132,-79 c -11.7,-13 -43.6,-39.7 -43.6,-39.7 0,0 -35.5,24.9 -62.6,38 0,0 23.5,-22.1 31.8,-29.6 11.6,-10.6 45.6,-43.5 45.6,-43.5 l -0.6,-0.7 -307.1,1 39.5,-184.1 c -16.5,4.7 -40.4,12.4 -66.4,23.9 -5.1,2.3 -10.1,4.6 -14.9,6.9 l -32.6,153.3 -99.9,0 c -30.9,31.1 -51,58.8 -51,58.8 l 17.1,18.7 39.6,0 c 11.8,-10.4 28.9,-24.3 52.4,-40.5 l -5.9,15.8 c -10,7.8 -19.6,16.2 -28.6,24.8 l 59.1,0 -22.4,101.3 27.3,27.2 1.9,2.2 c 0,0 18,-3.1 40.6,-8.8 l 27,-121.8 353.1,-1 c 0.4,-1.3 0.7,-2 0.6,-2.2 m -134.4,77.6 -82.8,-48.7 -55.5,0 110.9,65.2 c 12.3,-6.9 21.9,-12.9 27.4,-16.5 m 36,-246.1 -14.5,-19.1 -186.7,87.2 55.4,0 145.8,-68.1 z M 300.3,147.7 c 0,0 5,-4.5 13.5,-11.3 l -24.8,0 c 5.3,5 11.3,11.3 11.3,11.3" />
      <path
         style="fill:#ffffff"
         inkscape:connector-curvature="0"
         id="path6107"
         d="M 350.9,108.6 C 363.2,100.1 377,91.3 391.3,83.4 L 325.2,44.5 C 317.4,56 310.3,68.1 304,81 l 46.9,27.6 z" />
      <path
         style="fill:#ffffff"
         inkscape:connector-curvature="0"
         id="path6109"
         d="m 882.3,239.8 -19.4,-14.3 c 0,0 -6.2,6.1 -15.3,14.3 l 34.7,0 z" />
      <path
         style="fill:#ffffff"
         inkscape:connector-curvature="0"
         id="path6111"
         d="m 794.4,110.5 -109.1,0 84.4,-39.4 -21.8,-28.7 -145.8,68.1 -55.5,0 186.7,-87.2 -11.1,5.2 -7.9,-9.2 -171.8,80.2 32.2,-146.8 c -2,-3.9 -3.1,-6.1 -3.1,-6.1 0,0 -8.6,1.8 -22.5,5.7 l -39.5,184.1 307.1,-1 -22.3,-24.9 z" />
      <path
         style="fill:#ffffff"
         inkscape:connector-curvature="0"
         id="path6113"
         d="m 298.5,110.5 -6.1,-3.6 c -3.2,7.9 -6.2,15.9 -9,24.2 1.4,1.1 3.4,3.1 5.6,5.2 l 24.8,0 c 8.5,-6.9 20.3,-16.1 34.4,-25.9 l -49.7,0 z" />
      <path
         style="fill:#ffffff"
         inkscape:connector-curvature="0"
         id="path6115"
         d="m 492.9,328 16.3,-77.2 130.3,77.1 c 4.7,-2.1 9.5,-4.3 14.4,-6.7 11.2,-5.4 21.6,-11.1 30.6,-16.2 l -110.9,-65.3 55.5,0 82.9,48.8 c 3.3,-2.1 5.1,-3.3 5.1,-3.3 0,0 -1.1,1.8 -2.7,4.7 l 75.7,44.5 c 4.8,-2.8 9.3,-5.6 13.8,-8.5 L 657,239.6 l 170.6,0 c 8.6,-11.9 16.1,-22.6 18.2,-26.9 l -353.1,1 -27,121.8 c 8.5,-2 17.9,-4.6 27.2,-7.5" />
      <path
         style="fill:#ffffff"
         inkscape:connector-curvature="0"
         id="path6117"
         d="m 702.7,315.7 c -4,12 -6.5,24 -6.5,24 l 35.3,24.9 c 0,0 10.8,-4.3 30,-14.3 l -58.8,-34.6 z" />
      <path
         style="fill:#ffffff"
         inkscape:connector-curvature="0"
         id="path6119"
         d="M 418.5,99.5 394.4,85.3 c -1.2,0.8 -24.3,17.1 -52.5,44.6 -2.2,2.2 -4.4,4.3 -6.5,6.5 l 99.8,0 32.5,-153.4 c -8.8,4.2 -17.2,8.4 -25.3,12.8 L 418.5,99.5 Z" />
      <path
         style="fill:#ffffff"
         inkscape:connector-curvature="0"
         id="path6121"
         d="m 341.1,213.9 -39.6,0 18.7,20.5 c -0.1,-0.1 6.4,-7.7 20.9,-20.5" />
      <path
         style="fill:#ffffff"
         inkscape:connector-curvature="0"
         id="path6123"
         d="m 368.4,324.8 21.4,-15 2.5,2 3.3,3.3 22.4,-101.3 -59.1,0 c -9.1,8.7 -17.6,17.5 -25.3,25.9 l 47.4,0 -78.2,36.6 c -6.4,8.3 -10.1,13.4 -10.1,13.4 l 2.9,2.9 89.6,-41.9 -16.8,74.1 z" />
      <path
         style="fill:#11437d"
         inkscape:connector-curvature="0"
         id="path6125"
         d="m 882.3,239.8 -34.7,0 c -5.3,4.7 -11.5,10.1 -18.1,15.6 -12.2,10 -29.5,20.3 -29.5,20.3 7,-8.6 17.9,-22.9 27.3,-35.8 l -170.4,0 147,86.3 c 16.8,-10.7 30.9,-21.2 42.3,-29.9 0,0 -12.2,18.7 -21.1,32.2 12.3,11.7 25.4,22.1 25.4,22.1 l 56.2,-92.8 -24.4,-18 z" />
      <path
         style="fill:#11437d"
         inkscape:connector-curvature="0"
         id="path6127"
         d="M 574.7,-47.4 542.5,99.5 714.3,19.2 707.7,11.5 653.8,39.1 630.4,-4.3 565,24.3 c 8,-8 12,-11.3 31.6,-23 -8.2,-20.9 -17.3,-39.5 -21.9,-48.7" />
      <path
         style="fill:#11437d"
         inkscape:connector-curvature="0"
         id="path6129"
         d="m 391.3,83.5 0,0 c 0.7,0.2 2.5,1.4 3.2,1.7 0,0 -0.1,0.1 -0.1,0.1 l 24.1,14.2 24,-103.6 C 411.4,12.6 385,30.7 362.1,51.2 l -1.4,-0.7 c 5.7,-10.7 22.2,-28.2 40.9,-44.8 17.4,-15.4 41.5,-28.8 41.5,-28.8 l 4,-24.1 c -31.5,11.5 -66.4,28.4 -93.7,56.9 -10.3,10.8 -19.6,22.5 -28.2,35 l 66.1,38.8 z" />
      <polygon
         style="fill:#11437d"
         id="polygon6131"
         points="685.3,110.5 794.4,110.5 773.9,87.5 776.3,79.8 769.7,71.1 " />
      <polygon
         style="fill:#11437d"
         id="polygon6133"
         points="295.6,292.7 344.1,341.8 368.4,324.8 385.1,250.8 " />
      <path
         style="fill:#11437d"
         inkscape:connector-curvature="0"
         id="path6135"
         d="m 494.1,327.6 c 29.6,-9.5 56.3,-23.4 56.3,-23.4 0,0 5.8,6.5 11.3,13.9 l 23.7,30.4 c 0,0 24.7,-7.5 54.1,-20.6 L 509.2,250.8 492.9,328 c 0.4,-0.1 0.8,-0.2 1.2,-0.4" />
      <path
         style="fill:#11437d"
         inkscape:connector-curvature="0"
         id="path6137"
         d="m 729.4,418.3 c -0.7,0 1.4,-5.9 0.9,-5.9 -53.8,-2 -156.3,-1.9 -166.4,-9.4 -7.3,-5.5 3.8,-33.3 11.1,-48.5 0,0 -11.2,-15.1 -29.1,-37 -1.8,1.8 -29.3,32.6 -32.1,80.5 -15,4.2 -16.9,7.2 -46.5,9.6 -17.8,1.4 -97.8,3.9 -97.8,3.9 l -4.4,4 c -4.8,0.4 -31.4,1.3 -31.4,1.3 0,0 2.8,9 8.6,15.3 7.1,0.6 170.3,4.1 191.9,-10 8.4,7.1 23.5,11 53.2,9.7 5.6,-0.2 101.7,0.9 113.2,0.8 40.6,-0.3 123.1,-5.4 123.1,-5.4 l 7.4,-8.1 c -8.9,0 -52.4,-0.5 -79.4,-0.5 -7.5,-0.1 -20.6,-0.1 -22.3,-0.3" />
    </g>
  </g>
</svg>
