<svg xmlns="http://www.w3.org/2000/svg" width="69333.332" height="54096.155" viewBox="0 0 64.999999 50.715144"><path d="M2.023 34.382c.75-.96 1.856-2.325 3.222-3.816h4.933l-8.155 3.816zM.95 16.717l.635.375h5.183l.282-.188-4.902-2.888c-.438.865-.824 1.773-1.2 2.7m43.988 19.085c-.292.522-.75 1.388-1.043 2.19-.063.167-.115.334-.167.5l6.132 3.61c.782-.407 1.7-.908 2.743-1.513.084-.042.157-.094.23-.135l-7.894-4.65zM58.7 27.563c-1.22-1.356-4.546-4.14-4.546-4.14s-3.702 2.597-6.528 3.963c0 0 2.45-2.305 3.317-3.087 1.21-1.105 4.755-4.536 4.755-4.536l-.063-.073-32.025.103 4.12-19.2c-1.722.492-4.214 1.295-6.925 2.494-.532.24-1.054.48-1.554.72l-3.4 15.986H5.434C2.21 23.036.115 25.925.115 25.925l1.783 1.95h4.13c1.23-1.085 3.013-2.534 5.464-4.223l-.615 1.647c-1.043.813-2.044 1.69-2.983 2.585h6.163L11.72 38.45l2.848 2.836.2.23s1.876-.324 4.232-.918l2.816-12.702 36.823-.104c.04-.136.072-.21.06-.23m-14.014 8.093l-8.635-5.08h-5.787l11.565 6.8c1.283-.72 2.284-1.345 2.858-1.72M48.44 9.99L46.928 8l-19.47 9.092h5.777L48.44 9.99zM1.762 20.97s.522-.468 1.408-1.177H.584c.553.52 1.178 1.178 1.178 1.178" fill="#e63329"/><path d="M7.04 16.894c1.282-.886 2.72-1.804 4.212-2.628L4.36 10.21c-.814 1.2-1.555 2.46-2.212 3.806l4.89 2.878zM62.455 30.576l-2.023-1.49s-.646.635-1.595 1.49h3.618zM53.29 17.092H41.91l8.8-4.11L48.44 9.99l-15.205 7.102h-5.788L46.917 8l-1.157.54-.824-.96-17.916 8.365L30.378.635C30.168.23 30.055 0 30.055 0s-.897.188-2.347.594l-4.12 19.2 32.026-.105-2.325-2.598zM1.575 17.092l-.636-.375C.604 17.54.29 18.375 0 19.24c.146.115.355.324.584.543H3.17c.887-.72 2.117-1.68 3.588-2.7H1.575zM21.847 39.774l1.7-8.05 13.588 8.04c.49-.22.99-.45 1.502-.7 1.168-.562 2.253-1.157 3.19-1.69l-11.564-6.808h5.788l8.646 5.09c.344-.22.532-.346.532-.346s-.115.188-.282.49l7.895 4.64c.5-.29.97-.583 1.44-.885l-15.32-9h17.79c.898-1.24 1.68-2.357 1.9-2.805l-36.823.104-2.816 12.702c.887-.21 1.868-.48 2.837-.782" fill="#fff"/><path d="M43.726 38.49c-.417 1.253-.678 2.504-.678 2.504l3.68 2.597s1.128-.448 3.13-1.49l-6.132-3.61zM14.09 15.945l-2.515-1.48c-.125.083-2.534 1.782-5.474 4.65-.23.23-.458.45-.677.678H15.83l3.39-15.997c-.918.438-1.794.876-2.64 1.335l-2.49 10.815zM6.017 27.875h-4.13l1.95 2.138c-.01-.01.668-.803 2.18-2.138M8.864 39.44l2.232-1.564.26.208.345.345 2.337-10.565H7.873c-.95.907-1.835 1.825-2.638 2.7h4.943l-8.155 3.817C1.356 35.248.97 35.78.97 35.78l.302.302 9.344-4.37-1.752 7.728z" fill="#fff"/><path d="M62.455 30.576h-3.618c-.553.49-1.2 1.053-1.888 1.627-1.273 1.043-3.077 2.117-3.077 2.117.73-.897 1.867-2.388 2.847-3.734H38.95l15.33 9c1.752-1.116 3.222-2.21 4.41-3.118 0 0-1.27 1.95-2.2 3.358 1.283 1.22 2.65 2.305 2.65 2.305L65 32.454l-2.545-1.877zM30.378.626l-3.358 15.32L44.936 7.57l-.688-.802-5.62 2.878-2.442-4.526-6.82 2.983c.835-.834 1.252-1.18 3.296-2.4-.855-2.178-1.804-4.118-2.284-5.077M11.252 14.276c.073.02.26.146.334.178l-.01.01 2.513 1.48L16.59 5.142c-3.244 1.743-5.997 3.63-8.385 5.768l-.146-.073c.596-1.116 2.316-2.94 4.266-4.672 1.815-1.606 4.328-3.003 4.328-3.003L17.07.647c-3.284 1.2-6.923 2.96-9.77 5.933-1.074 1.127-2.044 2.347-2.94 3.65l6.892 4.046zM41.912 17.092H53.29l-2.14-2.398.25-.803-.687-.907M1.272 36.093l5.058 5.12 2.534-1.773 1.742-7.717M21.973 39.732c3.086-.99 5.87-2.44 5.87-2.44s.606.678 1.18 1.45l2.47 3.17s2.576-.783 5.642-2.15l-13.588-8.04-1.7 8.052c.042-.01.084-.02.126-.042" fill="#11437d"/><path d="M46.51 49.19c-.072 0 .147-.615.094-.615-5.61-.208-16.3-.198-17.352-.98-.762-.573.396-3.473 1.157-5.058 0 0-1.17-1.574-3.036-3.858-.187.187-3.055 3.398-3.347 8.394-1.564.438-1.762.75-4.85 1-1.855.147-10.198.407-10.198.407l-.46.42c-.5.04-3.275.134-3.275.134s.292.94.897 1.596c.74.062 17.76.427 20.012-1.043.876.74 2.45 1.147 5.548 1.01.584-.02 10.606.095 11.805.085 4.234-.03 12.837-.563 12.837-.563l.772-.846c-.928 0-5.464-.052-8.28-.052-.782-.01-2.148-.01-2.325-.03" fill="#11437d"/></svg>