<?xml version="1.0" encoding="UTF-8" standalone="no"?>
<!-- Created with Inkscape (http://www.inkscape.org/) -->

<svg
   xmlns:dc="http://purl.org/dc/elements/1.1/"
   xmlns:cc="http://creativecommons.org/ns#"
   xmlns:rdf="http://www.w3.org/1999/02/22-rdf-syntax-ns#"
   xmlns:svg="http://www.w3.org/2000/svg"
   xmlns="http://www.w3.org/2000/svg"
   xmlns:sodipodi="http://sodipodi.sourceforge.net/DTD/sodipodi-0.dtd"
   xmlns:inkscape="http://www.inkscape.org/namespaces/inkscape"
   width="18.344444mm"
   height="18.344444mm"
   viewBox="0 0 64.999999 64.999999"
   id="svg13079"
   version="1.1"
   inkscape:version="0.91 r13725"
   sodipodi:docname="ukip.svg">
  <defs
     id="defs13081" />
  <sodipodi:namedview
     id="base"
     pagecolor="#ffffff"
     bordercolor="#666666"
     borderopacity="1.0"
     inkscape:pageopacity="0.0"
     inkscape:pageshadow="2"
     inkscape:zoom="0.35"
     inkscape:cx="-1398.2143"
     inkscape:cy="1043.9285"
     inkscape:document-units="px"
     inkscape:current-layer="layer1"
     showgrid="false"
     fit-margin-top="0"
     fit-margin-left="0"
     fit-margin-right="0"
     fit-margin-bottom="0"
     inkscape:window-width="1680"
     inkscape:window-height="980"
     inkscape:window-x="0"
     inkscape:window-y="25"
     inkscape:window-maximized="1" />
  <metadata
     id="metadata13084">
    <rdf:RDF>
      <cc:Work
         rdf:about="">
        <dc:format>image/svg+xml</dc:format>
        <dc:type
           rdf:resource="http://purl.org/dc/dcmitype/StillImage" />
        <dc:title></dc:title>
      </cc:Work>
    </rdf:RDF>
  </metadata>
  <g
     inkscape:label="Layer 1"
     inkscape:groupmode="layer"
     id="layer1"
     transform="translate(-1096.0714,-1511.2907)">
    <g
       id="g7415"
       transform="matrix(1.4662096,0,0,1.4662096,617.55787,1082.6794)">
      <circle
         r="21.683624"
         cy="314.4921"
         cx="348.52695"
         id="path7413"
         style="color:#000000;display:inline;overflow:visible;visibility:visible;opacity:1;fill:#f2ea30;fill-opacity:1;fill-rule:nonzero;stroke:#702f85;stroke-width:0.96475023;stroke-linecap:butt;stroke-linejoin:miter;stroke-miterlimit:4;stroke-dasharray:none;stroke-dashoffset:0;stroke-opacity:1;marker:none;enable-background:accumulate" />
      <path
         sodipodi:nodetypes="csscscsscccccsscsccscscsscccccccssscscscccscscccccssssccccccccccccccccccccccccsscccccccccsscsccccsssssssccscssscc"
         inkscape:connector-curvature="0"
         id="path5461"
         d="m 338.93204,330.69706 c -1.42747,-0.35277 -2.18354,-0.9541 -2.76561,-2.19957 -0.78544,-1.68067 -0.38017,-3.70304 1.02333,-5.10654 1.06563,-1.06562 3.11614,-1.52189 5.49432,-1.22254 0.74017,0.0932 1.37589,0.13928 1.41269,0.10248 0.14838,-0.14838 -0.38662,-2.56458 -0.86147,-3.89059 -0.27834,-0.77722 -0.50606,-1.43815 -0.50606,-1.46872 0,-0.0306 1.48307,-0.0556 3.29569,-0.0556 l 3.29569,0 -8.8e-4,0.82392 c 0,0.45316 -0.19686,1.7589 -0.43676,2.90165 -0.23988,1.14274 -0.47289,2.28208 -0.51779,2.53185 l -0.0817,0.45413 1.12737,0.35376 c 1.95875,0.61464 2.63471,0.71291 4.43908,0.64533 2.61614,-0.098 3.50799,-0.59426 4.34975,-2.42049 0.45424,-0.98554 0.46036,-0.99142 1.03148,-0.99142 l 0.57451,0 -0.077,0.53734 c -0.0423,0.29553 -0.11654,0.92423 -0.16496,1.39709 -0.51129,4.99354 -3.02109,7.82035 -6.93158,7.80711 -1.62215,-0.005 -2.72919,-0.49257 -5.04104,-2.218 l -1.20837,-0.90186 -1.15908,1.11225 c -1.26306,1.21203 -2.01324,1.59237 -3.67174,1.8615 -1.12841,0.18312 -1.71242,0.17129 -2.62032,-0.053 z m 2.66532,-1.54245 c 1.1666,-0.40162 2.17807,-1.43017 2.55957,-2.60286 0.16856,-0.51807 0.15681,-0.57246 -0.20501,-0.95011 -0.21108,-0.22033 -0.71762,-0.58288 -1.12564,-0.80567 -0.62467,-0.3411 -0.95032,-0.41436 -2.06177,-0.46382 -1.22592,-0.0546 -1.36625,-0.0316 -1.9705,0.32252 -0.826,0.48407 -1.22324,1.22331 -1.22324,2.27642 0,0.97511 0.40236,1.62274 1.28532,2.0688 0.71971,0.36358 1.93525,0.43219 2.74127,0.15472 z m -6.54178,-13.2839 c -0.97176,-0.2783 -1.54625,-0.64591 -1.77373,-1.13501 -0.0847,-0.1821 -0.15309,-1.19038 -0.15309,-2.25683 l 0,-1.99724 1.03886,0 1.03885,0 0,1.682 c 0,1.34641 0.0447,1.67765 0.27204,2.01298 0.7919,1.1684 3.10647,1.26396 4.19714,0.17328 l 0.47436,-0.47436 0,-1.66217 0,-1.73173 1.08525,0 1.08525,0 -0.0464,2.13268 c -0.0493,2.26349 -0.11164,2.43237 -1.04909,2.9174 -0.76886,0.3978 -2.26489,0.75683 -3.70134,0.75683 -0.91454,0 -1.80492,-0.2279 -2.4681,-0.41783 z m 9.24986,-2.597 0,-2.79208 1.07468,0 1.14802,0 c -0.0461,0.84063 -0.0796,1.67063 0,2.5055 1.02276,-0.82335 2.0802,-1.66464 3.08853,-2.5055 0.75936,0 1.51872,0 2.27808,0 -0.90718,0.88414 -1.81231,1.77038 -2.71742,2.65664 1.29916,0.9831 2.50845,2.06985 3.72556,3.15027 -0.89319,0 -1.78638,0 -2.67957,0 -1.12225,-0.98485 -2.44588,-1.77746 -3.69518,-2.58501 -0.16236,0.85725 0,1.71769 0,2.58501 l -1.14802,0 -1.07468,0 0,-3.01488 z m 9.60049,-2.79208 c 0.76422,0 1.52843,0 2.29265,0 0,1.93564 0,3.87127 0,5.80691 -0.76422,0 -1.52843,0 -2.29265,0 0,-1.93564 0,-3.87127 0,-5.80691 z m 4.44203,2.77088 0,-2.77088 2.6867,-0.0384 c 2.07601,0.0601 2.82637,0.13402 3.30119,0.32547 0.97719,0.39402 1.29348,1.28848 0.76315,2.15815 -0.43014,0.70538 -1.13817,0.95034 -2.98216,1.03172 l -1.61952,0.0715 0,1.05469 0,1.20378 -1.07468,0 -1.07468,0 z m 4.44201,-0.45026 c 0.43148,-0.21751 0.53156,-0.69607 0.21233,-1.0153 -0.17572,-0.17572 -0.51135,-0.2328 -1.36889,-0.2328 l -1.13609,0 0,0.62092 c 0,0.34152 0.043,0.66393 0.0955,0.71646 0.16632,0.16632 1.8237,0.099 2.19713,-0.0893 z m -23.12742,-3.86313 c -0.36525,-1.82107 -0.22739,-4.07713 0.36523,-5.97674 0.87811,-2.81478 3.16304,-4.93288 6.36301,-5.89847 1.43435,-0.4328 4.86459,-0.53933 6.52856,-0.20274 2.06396,0.4175 3.82951,1.64347 4.58685,3.18503 0.43566,0.88679 0.55013,2.84843 0.21274,3.64551 -0.56981,1.34614 -1.61616,1.98755 -3.2424,1.98755 -1.20429,0 -1.63334,-0.15282 -2.33027,-0.82996 -0.77872,-0.75662 -0.97619,-1.54253 -0.86701,-3.4507 0.0769,-1.34331 0.0521,-1.61404 -0.19965,-2.18318 -0.36338,-0.82147 -0.95951,-1.13059 -2.1804,-1.13059 -1.84414,0 -2.87088,1.11762 -2.87347,3.12776 -8.9e-4,0.70739 0.38644,3.02379 1.0067,6.0202 0.23396,1.13028 0.4254,2.08138 0.4254,2.11354 0,0.0322 -1.73293,0.0585 -3.85094,0.0585 l -3.85094,0 -0.0934,-0.4657 z"
         style="fill:#702f85;fill-opacity:1;stroke:#ffffff;stroke-width:0.2;stroke-miterlimit:4;stroke-dasharray:none;stroke-opacity:1" />
    </g>
  </g>
</svg>
