<svg xmlns="http://www.w3.org/2000/svg" width="69333.332" height="69333.332" viewBox="0 0 64.999999 64.999999"><g transform="matrix(1.4662 0 0 1.4662 -478.514 -428.61)"><circle r="21.684" cy="314.492" cx="348.527" color="#000" overflow="visible" fill="#f2ea30" stroke="#702f85" stroke-width=".965"/><path d="M338.932 330.697c-1.427-.353-2.184-.954-2.766-2.2-.785-1.68-.38-3.703 1.024-5.106 1.065-1.065 3.116-1.52 5.494-1.222.74.094 1.376.14 1.413.103.148-.147-.387-2.564-.862-3.89-.278-.777-.506-1.438-.506-1.468 0-.03 1.482-.056 3.295-.056h3.296v.824c0 .453-.197 1.76-.437 2.902-.24 1.142-.473 2.282-.518 2.53l-.082.456 1.128.353c1.96.616 2.636.714 4.44.647 2.616-.098 3.508-.595 4.35-2.42.454-.986.46-.992 1.03-.992h.576l-.077.537c-.044.296-.118.924-.166 1.397-.512 4.993-3.02 7.82-6.932 7.806-1.622-.005-2.73-.492-5.04-2.218l-1.21-.902-1.158 1.113c-1.263 1.21-2.014 1.59-3.672 1.86-1.13.183-1.713.17-2.62-.053zm2.665-1.542c1.167-.402 2.178-1.43 2.56-2.603.168-.518.157-.573-.205-.95-.21-.22-.718-.583-1.126-.806-.624-.34-.95-.414-2.06-.464-1.227-.054-1.368-.03-1.972.323-.826.484-1.223 1.223-1.223 2.276 0 .976.403 1.624 1.286 2.07.72.363 1.935.432 2.74.155zm-6.54-13.284c-.973-.278-1.548-.645-1.775-1.134-.085-.182-.153-1.19-.153-2.257v-1.998h2.076v1.682c0 1.346.045 1.677.273 2.013.79 1.168 3.105 1.264 4.196.173l.474-.474v-3.393H342.32l-.046 2.13c-.05 2.265-.112 2.434-1.05 2.92-.768.397-2.264.756-3.7.756-.915 0-1.805-.23-2.468-.42zm9.248-2.596v-2.792h2.223c-.046.84-.08 1.67 0 2.505 1.023-.823 2.08-1.665 3.09-2.505h2.277c-.907.884-1.813 1.77-2.718 2.656 1.3.983 2.51 2.07 3.726 3.15h-2.68c-1.122-.984-2.446-1.777-3.695-2.584-.162.857 0 1.717 0 2.585h-2.223v-3.016zm9.6-2.792h2.294v5.807h-2.294v-5.808zm4.443 2.77v-2.77l2.687-.04c2.076.06 2.826.135 3.3.327.978.393 1.294 1.287.764 2.157-.43.705-1.14.95-2.983 1.032l-1.62.07v2.259h-2.149zm4.442-.45c.43-.217.532-.696.212-1.015-.175-.176-.51-.233-1.37-.233h-1.135v.62c0 .343.043.665.096.718.166.166 1.824.1 2.197-.09zm-23.127-3.863c-.366-1.822-.228-4.078.365-5.978.878-2.814 3.163-4.932 6.363-5.898 1.435-.433 4.865-.54 6.53-.203 2.063.42 3.83 1.645 4.586 3.186.436.887.55 2.85.213 3.646-.57 1.346-1.617 1.987-3.243 1.987-1.205 0-1.634-.154-2.33-.83-.78-.757-.977-1.543-.868-3.45.076-1.345.05-1.615-.2-2.185-.364-.82-.96-1.13-2.18-1.13-1.845 0-2.872 1.117-2.874 3.128 0 .707.386 3.023 1.006 6.02.234 1.13.426 2.08.426 2.113 0 .033-1.733.06-3.85.06h-3.852l-.093-.467z" fill="#702f85" stroke="#fff" stroke-width=".2"/></g></svg>